<svg aria-hidden="true" style="position: absolute; width: 0; height: 0; overflow: hidden;" version="1.1" xmlns="http://www.w3.org/2000/svg" xmlns:xlink="http://www.w3.org/1999/xlink">
<defs>
<symbol id="icon-star-empty" viewBox="0 0 32 32">
<path d="M32 12.408l-11.056-1.607-4.944-10.018-4.944 10.018-11.056 1.607 8 7.798-1.889 11.011 9.889-5.199 9.889 5.199-1.889-11.011 8-7.798zM16 23.547l-6.983 3.671 1.334-7.776-5.65-5.507 7.808-1.134 3.492-7.075 3.492 7.075 7.807 1.134-5.65 5.507 1.334 7.776-6.983-3.671z"></path>
</symbol>
<symbol id="icon-star-half" viewBox="0 0 32 32">
<path d="M32 12.408l-11.056-1.607-4.944-10.018-4.944 10.018-11.056 1.607 8 7.798-1.889 11.011 9.889-5.199 9.889 5.199-1.889-11.011 8-7.798zM16 23.547l-0.029 0.015 0.029-17.837 3.492 7.075 7.807 1.134-5.65 5.507 1.334 7.776-6.983-3.671z"></path>
</symbol>
<symbol id="icon-star-full" viewBox="0 0 32 32">
<path d="M32 12.408l-11.056-1.607-4.944-10.018-4.944 10.018-11.056 1.607 8 7.798-1.889 11.011 9.889-5.199 9.889 5.199-1.889-11.011 8-7.798z"></path>
</symbol>
<symbol xmlns="http://www.w3.org/2000/svg" enable-background="new 0 0 24 24" viewBox="0 0 24 24" id="backpack_black_24dp">
    <g>
      <path d="M17,4.14V2h-3v2h-4V2H7v2.14C5.28,4.59,4,6.14,4,8v12c0,1.1,0.9,2,2,2h12c1.1,0,2-0.9,2-2V8C20,6.14,18.72,4.59,17,4.14z M18,20H6V8c0-1.1,0.9-2,2-2h8c1.1,0,2,0.9,2,2V20z M16.5,12v4h-2v-2h-7v-2H16.5z"></path>
      <path d="M0,0v24h24V0H0z" fill="none"></path>
    </g>
  </symbol>
<symbol xmlns="http://www.w3.org/2000/svg" viewBox="0 0 24 24" id="category_black_24dp">
    <path d="M0 0h24v24H0V0z" fill="none"></path>
    <path d="M12 2l-5.5 9h11L12 2zm0 3.84L13.93 9h-3.87L12 5.84zM17.5 13c-2.49 0-4.5 2.01-4.5 4.5s2.01 4.5 4.5 4.5 4.5-2.01 4.5-4.5-2.01-4.5-4.5-4.5zm0 7c-1.38 0-2.5-1.12-2.5-2.5s1.12-2.5 2.5-2.5 2.5 1.12 2.5 2.5-1.12 2.5-2.5 2.5zM3 21.5h8v-8H3v8zm2-6h4v4H5v-4z"></path>
  </symbol>
<symbol id="icon-home2" viewBox="0 0 32 32">
<path d="M16 1l-16 16 3 3 3-3v13h8v-6h4v6h8v-13l3 3 3-3-16-16zM16 14c-1.105 0-2-0.895-2-2s0.895-2 2-2c1.105 0 2 0.895 2 2s-0.895 2-2 2z"></path>
</symbol>
<symbol id="icon-trending_neutral" viewBox="0 0 24 24">
<path d="M21.984 12l-3.984 3.984v-3h-15v-1.969h15v-3z"></path>
</symbol>
<symbol id="icon-home" viewBox="0 0 24 24">
<path d="M9.984 20.016h-4.969v-8.016h-3l9.984-9 9.984 9h-3v8.016h-4.969v-6h-4.031v6z"></path>
</symbol>
<symbol id="icon-phone" viewBox="0 0 32 32">
<path d="M22 20c-2 2-2 4-4 4s-4-2-6-4-4-4-4-6 2-2 4-4-4-8-6-8-6 6-6 6c0 4 4.109 12.109 8 16s12 8 16 8c0 0 6-4 6-6s-6-8-8-6z"></path>
</symbol>
<symbol id="icon-search" viewBox="0 0 32 32">
<path d="M31.008 27.231l-7.58-6.447c-0.784-0.705-1.622-1.029-2.299-0.998 1.789-2.096 2.87-4.815 2.87-7.787 0-6.627-5.373-12-12-12s-12 5.373-12 12 5.373 12 12 12c2.972 0 5.691-1.081 7.787-2.87-0.031 0.677 0.293 1.515 0.998 2.299l6.447 7.58c1.104 1.226 2.907 1.33 4.007 0.23s0.997-2.903-0.23-4.007zM12 20c-4.418 0-8-3.582-8-8s3.582-8 8-8 8 3.582 8 8-3.582 8-8 8z"></path>
</symbol>
<symbol id="icon-heart" viewBox="0 0 32 32">
<path d="M23.6 2c-3.363 0-6.258 2.736-7.599 5.594-1.342-2.858-4.237-5.594-7.601-5.594-4.637 0-8.4 3.764-8.4 8.401 0 9.433 9.516 11.906 16.001 21.232 6.13-9.268 15.999-12.1 15.999-21.232 0-4.637-3.763-8.401-8.4-8.401z"></path>
</symbol>
<symbol id="icon-circle-right" viewBox="0 0 32 32">
<path d="M16 0c-8.837 0-16 7.163-16 16s7.163 16 16 16 16-7.163 16-16-7.163-16-16-16zM16 29c-7.18 0-13-5.82-13-13s5.82-13 13-13 13 5.82 13 13-5.82 13-13 13z"></path>
<path d="M11.086 22.086l2.829 2.829 8.914-8.914-8.914-8.914-2.828 2.828 6.086 6.086z"></path>
</symbol>
<symbol id="icon-share2" viewBox="0 0 32 32">
<path d="M27 22c-1.411 0-2.685 0.586-3.594 1.526l-13.469-6.734c0.041-0.258 0.063-0.522 0.063-0.791s-0.022-0.534-0.063-0.791l13.469-6.734c0.909 0.94 2.183 1.526 3.594 1.526 2.761 0 5-2.239 5-5s-2.239-5-5-5-5 2.239-5 5c0 0.269 0.022 0.534 0.063 0.791l-13.469 6.734c-0.909-0.94-2.183-1.526-3.594-1.526-2.761 0-5 2.239-5 5s2.239 5 5 5c1.411 0 2.685-0.586 3.594-1.526l13.469 6.734c-0.041 0.258-0.063 0.522-0.063 0.791 0 2.761 2.239 5 5 5s5-2.239 5-5c0-2.761-2.239-5-5-5z"></path>
</symbol>
<symbol id="icon-google" viewBox="0 0 32 32">
<path d="M16.319 13.713v5.487h9.075c-0.369 2.356-2.744 6.9-9.075 6.9-5.463 0-9.919-4.525-9.919-10.1s4.456-10.1 9.919-10.1c3.106 0 5.188 1.325 6.375 2.469l4.344-4.181c-2.788-2.612-6.4-4.188-10.719-4.188-8.844 0-16 7.156-16 16s7.156 16 16 16c9.231 0 15.363-6.494 15.363-15.631 0-1.050-0.113-1.85-0.25-2.65l-15.113-0.006z"></path>
</symbol>
<symbol id="icon-facebook2" viewBox="0 0 32 32">
<path d="M29 0h-26c-1.65 0-3 1.35-3 3v26c0 1.65 1.35 3 3 3h13v-14h-4v-4h4v-2c0-3.306 2.694-6 6-6h4v4h-4c-1.1 0-2 0.9-2 2v2h6l-1 4h-5v14h9c1.65 0 3-1.35 3-3v-26c0-1.65-1.35-3-3-3z"></path>
</symbol>
<symbol id="icon-instagram" viewBox="0 0 32 32">
<path d="M16 2.881c4.275 0 4.781 0.019 6.462 0.094 1.563 0.069 2.406 0.331 2.969 0.55 0.744 0.288 1.281 0.638 1.837 1.194 0.563 0.563 0.906 1.094 1.2 1.838 0.219 0.563 0.481 1.412 0.55 2.969 0.075 1.688 0.094 2.194 0.094 6.463s-0.019 4.781-0.094 6.463c-0.069 1.563-0.331 2.406-0.55 2.969-0.288 0.744-0.637 1.281-1.194 1.837-0.563 0.563-1.094 0.906-1.837 1.2-0.563 0.219-1.413 0.481-2.969 0.55-1.688 0.075-2.194 0.094-6.463 0.094s-4.781-0.019-6.463-0.094c-1.563-0.069-2.406-0.331-2.969-0.55-0.744-0.288-1.281-0.637-1.838-1.194-0.563-0.563-0.906-1.094-1.2-1.837-0.219-0.563-0.481-1.413-0.55-2.969-0.075-1.688-0.094-2.194-0.094-6.463s0.019-4.781 0.094-6.463c0.069-1.563 0.331-2.406 0.55-2.969 0.288-0.744 0.638-1.281 1.194-1.838 0.563-0.563 1.094-0.906 1.838-1.2 0.563-0.219 1.412-0.481 2.969-0.55 1.681-0.075 2.188-0.094 6.463-0.094zM16 0c-4.344 0-4.887 0.019-6.594 0.094-1.7 0.075-2.869 0.35-3.881 0.744-1.056 0.412-1.95 0.956-2.837 1.85-0.894 0.888-1.438 1.781-1.85 2.831-0.394 1.019-0.669 2.181-0.744 3.881-0.075 1.713-0.094 2.256-0.094 6.6s0.019 4.887 0.094 6.594c0.075 1.7 0.35 2.869 0.744 3.881 0.413 1.056 0.956 1.95 1.85 2.837 0.887 0.887 1.781 1.438 2.831 1.844 1.019 0.394 2.181 0.669 3.881 0.744 1.706 0.075 2.25 0.094 6.594 0.094s4.888-0.019 6.594-0.094c1.7-0.075 2.869-0.35 3.881-0.744 1.050-0.406 1.944-0.956 2.831-1.844s1.438-1.781 1.844-2.831c0.394-1.019 0.669-2.181 0.744-3.881 0.075-1.706 0.094-2.25 0.094-6.594s-0.019-4.887-0.094-6.594c-0.075-1.7-0.35-2.869-0.744-3.881-0.394-1.063-0.938-1.956-1.831-2.844-0.887-0.887-1.781-1.438-2.831-1.844-1.019-0.394-2.181-0.669-3.881-0.744-1.712-0.081-2.256-0.1-6.6-0.1v0z"></path>
<path d="M16 7.781c-4.537 0-8.219 3.681-8.219 8.219s3.681 8.219 8.219 8.219 8.219-3.681 8.219-8.219c0-4.537-3.681-8.219-8.219-8.219zM16 21.331c-2.944 0-5.331-2.387-5.331-5.331s2.387-5.331 5.331-5.331c2.944 0 5.331 2.387 5.331 5.331s-2.387 5.331-5.331 5.331z"></path>
<path d="M26.462 7.456c0 1.060-0.859 1.919-1.919 1.919s-1.919-0.859-1.919-1.919c0-1.060 0.859-1.919 1.919-1.919s1.919 0.859 1.919 1.919z"></path>
</symbol>
<symbol id="icon-twitter" viewBox="0 0 32 32">
<path d="M32 7.075c-1.175 0.525-2.444 0.875-3.769 1.031 1.356-0.813 2.394-2.1 2.887-3.631-1.269 0.75-2.675 1.3-4.169 1.594-1.2-1.275-2.906-2.069-4.794-2.069-3.625 0-6.563 2.938-6.563 6.563 0 0.512 0.056 1.012 0.169 1.494-5.456-0.275-10.294-2.888-13.531-6.862-0.563 0.969-0.887 2.1-0.887 3.3 0 2.275 1.156 4.287 2.919 5.463-1.075-0.031-2.087-0.331-2.975-0.819 0 0.025 0 0.056 0 0.081 0 3.181 2.263 5.838 5.269 6.437-0.55 0.15-1.131 0.231-1.731 0.231-0.425 0-0.831-0.044-1.237-0.119 0.838 2.606 3.263 4.506 6.131 4.563-2.25 1.762-5.075 2.813-8.156 2.813-0.531 0-1.050-0.031-1.569-0.094 2.913 1.869 6.362 2.95 10.069 2.95 12.075 0 18.681-10.006 18.681-18.681 0-0.287-0.006-0.569-0.019-0.85 1.281-0.919 2.394-2.075 3.275-3.394z"></path>
</symbol>
<symbol id="icon-location" viewBox="0 0 32 32">
<path d="M16 0c-5.523 0-10 4.477-10 10 0 10 10 22 10 22s10-12 10-22c0-5.523-4.477-10-10-10zM16 16c-3.314 0-6-2.686-6-6s2.686-6 6-6 6 2.686 6 6-2.686 6-6 6z"></path>
</symbol>
<symbol id="icon-facebook" viewBox="0 0 32 32">
<path d="M19 6h5v-6h-5c-3.86 0-7 3.14-7 7v3h-4v6h4v16h6v-16h5l1-6h-6v-3c0-0.542 0.458-1 1-1z"></path>
</symbol>
<symbol id="icon-mail" viewBox="0 0 32 32">
<path d="M29 4h-26c-1.65 0-3 1.35-3 3v20c0 1.65 1.35 3 3 3h26c1.65 0 3-1.35 3-3v-20c0-1.65-1.35-3-3-3zM12.461 17.199l-8.461 6.59v-15.676l8.461 9.086zM5.512 8h20.976l-10.488 7.875-10.488-7.875zM12.79 17.553l3.21 3.447 3.21-3.447 6.58 8.447h-19.579l6.58-8.447zM19.539 17.199l8.461-9.086v15.676l-8.461-6.59z"></path>
</symbol>
<symbol id="icon-user" viewBox="0 0 20 20">
 <path id="shape" d="M60-38A10,10,0,0,0,50-28,10,10,0,0,0,60-18,10,10,0,0,0,70-28,10,10,0,0,0,60-38Zm0,3a3,3,0,0,1,3,3,3,3,0,0,1-3,3,3,3,0,0,1-3-3A3,3,0,0,1,60-35Zm0,14.2a7.2,7.2,0,0,1-6-3.22c.03-1.99,4-3.08,6-3.08s5.97,1.09,6,3.08A7.2,7.2,0,0,1,60-20.8Z" transform="translate(-50 38)"/>
</symbol>
<symbol id="icon-dec" viewBox="0 0 14 2" width="14" height="2">
<line id="Line_21" data-name="Line 21" x2="12" transform="translate(1 1)" fill="none" stroke="#fff" stroke-linecap="round" stroke-width="2"/>
</symbol>
<symbol id="icon-inc" viewBox="0 0 14 14" width="14" height="14">
<g id="Group_43" data-name="Group 43" transform="translate(-1042.5 -390)">
    <line id="Line_22" data-name="Line 22" x2="12" transform="translate(1043.5 397)" fill="none" stroke="#fff" stroke-linecap="round" stroke-width="2"/>
    <line id="Line_23" data-name="Line 23" x2="12" transform="translate(1049.5 391) rotate(90)" fill="none" stroke="#fff" stroke-linecap="round" stroke-width="2"/>
  </g>
</symbol>
<symbol id="icon-bin" viewBox="0 0 32 32">
<path d="M4 10v20c0 1.1 0.9 2 2 2h18c1.1 0 2-0.9 2-2v-20h-22zM10 28h-2v-14h2v14zM14 28h-2v-14h2v14zM18 28h-2v-14h2v14zM22 28h-2v-14h2v14z"></path>
<path d="M26.5 4h-6.5v-2.5c0-0.825-0.675-1.5-1.5-1.5h-7c-0.825 0-1.5 0.675-1.5 1.5v2.5h-6.5c-0.825 0-1.5 0.675-1.5 1.5v2.5h26v-2.5c0-0.825-0.675-1.5-1.5-1.5zM18 4h-6v-1.975h6v1.975z"></path>
</symbol>
<symbol id="icon-youtube" viewBox="0 0 32 32">
<path d="M31.681 9.6c0 0-0.313-2.206-1.275-3.175-1.219-1.275-2.581-1.281-3.206-1.356-4.475-0.325-11.194-0.325-11.194-0.325h-0.012c0 0-6.719 0-11.194 0.325-0.625 0.075-1.987 0.081-3.206 1.356-0.963 0.969-1.269 3.175-1.269 3.175s-0.319 2.588-0.319 5.181v2.425c0 2.587 0.319 5.181 0.319 5.181s0.313 2.206 1.269 3.175c1.219 1.275 2.819 1.231 3.531 1.369 2.563 0.244 10.881 0.319 10.881 0.319s6.725-0.012 11.2-0.331c0.625-0.075 1.988-0.081 3.206-1.356 0.962-0.969 1.275-3.175 1.275-3.175s0.319-2.587 0.319-5.181v-2.425c-0.006-2.588-0.325-5.181-0.325-5.181zM12.694 20.15v-8.994l8.644 4.513-8.644 4.481z"></path>
</symbol>
<!-- <symbol id="icon-arrow-right" viewBox="0 0 11.743 17.828">
<path id="Path_30" data-name="Path 30" d="M11.086,22.086l2.829,2.829L22.829,16,13.915,7.087,11.087,9.915,17.173,16Z" transform="translate(-11.086 -7.087)"/>
</symbol> -->
<symbol id="icon-arrow-up">
<path id="Path_30" data-name="Path 30" d="M11.086,22.086l2.829,2.829L22.829,16,13.915,7.087,11.087,9.915,17.173,16Z" transform="translate(-7.087 22.829) rotate(-90)"/>
</symbol>
<symbol id="icon-arrow-down">
<path id="Path_30" data-name="Path 30" d="M11.086,22.086l2.829,2.829L22.829,16,13.915,7.087,11.087,9.915,17.173,16Z" transform="translate(24.915 -11.086) rotate(90)"/>
</symbol>
<symbol id="icon-view-list" viewBox="0 0 20 20">
<path d="M0 3h20v2h-20v-2zM0 7h20v2h-20v-2zM0 11h20v2h-20v-2zM0 15h20v2h-20v-2z"></path>
</symbol>
<symbol id="icon-cart" viewBox="0 0 48 48">
<path d="M25 37.5c0-0.88-0.15-1.72-0.431-2.5h5.851c-0.27 0.78-0.42 1.62-0.42 2.5 0 4.141 3.359 7.5 7.5 7.5 4.14 0 7.5-3.359 7.5-7.5 0-4.14-3.36-7.5-7.5-7.5h-16.5c-1.1 0-2-0.9-2-2s0.9-2 2-2h17.2c1.81 0 3.369-1.061 4.079-2.6 0.271-0.58 5.451-12.39 5.451-12.39 0.14-0.321 0.27-0.64 0.27-1.010 0-1.1-0.9-2-2-2l-31.221-0-0.84-2.59c-0.389-1.39-1.479-2.41-2.939-2.41h-8.5c-1.38 0-2.5 1.12-2.5 2.5s1.12 2.5 2.5 2.5h5.25c0.89 0 1.64 0.58 1.9 1.37l4.22 21.569c-2.309 1.271-3.87 3.741-3.87 6.561 0 4.141 3.359 7.5 7.5 7.5 4.14 0 7.5-3.359 7.5-7.5zM20 37.5c0 1.38-1.12 2.5-2.5 2.5s-2.5-1.12-2.5-2.5 1.12-2.5 2.5-2.5 2.5 1.12 2.5 2.5zM40 37.5c0 1.38-1.12 2.5-2.5 2.5s-2.5-1.12-2.5-2.5 1.12-2.5 2.5-2.5 2.5 1.12 2.5 2.5z"></path>
</symbol>
    <symbol id="icon-arrow-left" viewBox="0 0 48 48">
    <path d="M22.62 3.78c0.67-0.49 1.489-0.78 2.38-0.78 2.21 0 4 1.79 4 4v4c0 1.101 0.9 2 2 2h12c2.21 0 4 1.79 4 4v14c0 2.21-1.79 4-4 4l-12-0c-1.1 0-2 0.9-2 2v4c0 2.21-1.79 4-4 4-0.891 0-1.71-0.29-2.38-0.78l-20.15-16.67c-1.96-1.96-1.96-5.14 0-7.1l20.15-16.67z"></path>
    </symbol>
    <symbol id="icon-arrow-right" viewBox="0 0 48 48">
    <path d="M25.38 3.78c-0.67-0.49-1.49-0.78-2.38-0.78-2.21 0-4 1.79-4 4v4c0 1.101-0.9 2-2 2h-12c-2.21 0-4 1.79-4 4v14c0 2.21 1.79 4 4 4h12c1.1 0 2 0.9 2 2v4c0 2.21 1.79 4 4 4 0.89 0 1.71-0.29 2.38-0.78l20.149-16.67c1.961-1.96 1.961-5.14 0-7.1l-20.149-16.67z"></path>
    </symbol>
    <symbol id="icon-accommodate" viewBox="0 0 32 32">
    <path d="M8 28v-15l8-9 8 9v15h-16z"></path>
    </symbol>
    <symbol id="icon-bag" viewBox="0 0 48 48">
    <path d="M0 44c0 2.21 1.79 4 4 4h40c2.21 0 4-1.79 4-4l-0-25c0-2.21-1.79-4-4-4h-4v-4.5c0-5.8-4.7-10.5-10.5-10.5-2.37 0-4.55 0.78-6.3 2.1-1.42-0.7-3.010-1.1-4.7-1.1-5.8 0-10.5 4.7-10.5 10.5l0.010 3.5h-4.010c-2.21 0-4 1.79-4 4v25zM35 15h-10.99l-0.010-4.5c0-3.040 2.46-5.5 5.5-5.5s5.5 2.46 5.5 5.5v4.5zM19.010 15h-6l-0.010-3.5c0-3.040 2.46-5.5 5.5-5.5 0.49 0 0.97 0.061 1.42 0.189-0.59 1.311-0.92 2.771-0.92 4.311l0.010 4.5zM19 21.5c0-1.38 1.12-2.5 2.5-2.5s2.5 1.12 2.5 2.5-1.12 2.5-2.5 2.5-2.5-1.12-2.5-2.5zM35 21.5c0-1.38 1.12-2.5 2.5-2.5s2.5 1.12 2.5 2.5-1.12 2.5-2.5 2.5-2.5-1.12-2.5-2.5zM9 22v19c0 1.1-0.9 2-2 2s-2-0.9-2-2l-0-19c0-1.1 0.9-2 2-2s2 0.9 2 2z"></path>
    </symbol>
    <symbol id="icon-quotes-left" viewBox="0 0 32 32">
    <path d="M7.031 14c3.866 0 7 3.134 7 7s-3.134 7-7 7-7-3.134-7-7l-0.031-1c0-7.732 6.268-14 14-14v4c-2.671 0-5.182 1.040-7.071 2.929-0.364 0.364-0.695 0.751-0.995 1.157 0.357-0.056 0.724-0.086 1.097-0.086zM25.031 14c3.866 0 7 3.134 7 7s-3.134 7-7 7-7-3.134-7-7l-0.031-1c0-7.732 6.268-14 14-14v4c-2.671 0-5.182 1.040-7.071 2.929-0.364 0.364-0.695 0.751-0.995 1.157 0.358-0.056 0.724-0.086 1.097-0.086z"></path>
    </symbol>
</defs>
</svg>
