<svg xmlns="http://www.w3.org/2000/svg" viewBox="0 0 40.01 23.54"><title>Asset 2</title><g id="Layer_2" data-name="Layer 2"><g id="Layer_1-2" data-name="Layer 1"><path d="M.48,23.53s.14,0,.12,0l-.17,0Z" fill="#e9e9e9"/><path d="M.78,23.3a.67.67,0,0,0-.37-.06c.16,0,.09.05.28.1,0,0,0,.05-.11.05s0,.05.07.07.13-.1,0-.16A.4.4,0,0,1,.78,23.3Z" fill="#e9e9e9"/><path d="M1,20l0,0A0,0,0,0,0,1,20Z" fill="#e9e9e9"/><path d="M1.13,17.94l0,0A.05.05,0,0,0,1.13,17.94Z" fill="#e9e9e9"/><path d="M1.31,17.59s0,0,0,0S1.33,17.59,1.31,17.59Z" fill="#e9e9e9"/><path d="M1,20l.05,0C1,19.93,1.05,20,1,20Z" fill="#e9e9e9"/><path d="M.38,22.85l0,0,0,0Z" fill="#e9e9e9"/><path d="M1.18,20.9h0l.06,0Z" fill="#e9e9e9"/><path d="M1.2,21.59s-.13,0-.19,0,.08,0,.09,0Z" fill="#e9e9e9"/><path d="M1,22.69l0,0Z" fill="#e9e9e9"/><path d="M1.21,20.4h0Z" fill="#e9e9e9"/><path d="M.15,1h0S.15,1,.15,1Z" fill="#e9e9e9"/><path d="M.85.17h0Z" fill="#e9e9e9"/><path d="M1.49,17Z" fill="#e9e9e9"/><path d="M1.39,11.06c-.12.07-.16-.11-.3,0C1.15,11,1.31,11.14,1.39,11.06Z" fill="#e9e9e9"/><path d="M.4,22.83v0Z" fill="#e9e9e9"/><path d="M1.09,11.05Z" fill="#e9e9e9"/><path d="M1.41,15.47h0Z" fill="#e9e9e9"/><path d="M1.21,16.57l0,0S1.21,16.56,1.21,16.57Z" fill="#e9e9e9"/><path d="M1.21,14.9s0,0,0,0h0S1.23,14.88,1.21,14.9Z" fill="#e9e9e9"/><path d="M1.21,14.3h0v0Z" fill="#e9e9e9"/><path d="M.22,2.78l.12,0C.24,2.77.21,2.68.22,2.78Z" fill="#e9e9e9"/><path d="M.46,22.85l-.06,0v0Z" fill="#e9e9e9"/><path d="M.1,14.87l0-.09A.24.24,0,0,0,.1,14.87Z" fill="#e9e9e9"/><path d="M.24,7.05l0,0S.22,7.05.24,7.05Z" fill="#e9e9e9"/><path d="M.1,14.5l.1-.06h0Z" fill="#e9e9e9"/><path d="M.35,2.76h0Z" fill="#e9e9e9"/><path d="M0,2.13c0,.09.18.05.29.06s-.14.05-.23.09.22.12.21.17H.2c.15.07,0,.21.19.3h0a1.14,1.14,0,0,1,.25,0s.12.08,0,.09,0,0-.08,0l.05,0c-.17,0-.06-.06-.18-.06,0,.08.2.18.15.24S.47,2.87.32,3l.06-.1c-.26.08,0-.06-.26,0,0,.13.08.14,0,.27.1,0,.14,0,.24,0S0,3.3.19,3.44s.32.05.21.14l-.19,0c0,.12.27.07.15.2s-.07-.1-.09-.08.11.06.11.13H.21c0,.13.15.28.18.43,0,0-.11,0-.16,0s0,.39-.12.57l.15.07s-.07,0-.1,0,.1,0,.15,0S.23,5,.19,5c.12.12.26.35.11.48l0,0c-.06.1.3.12.17.21l0,0c-.06.22.07.46-.15.63.21,0-.09.22.2.23-.15.13-.2.09-.3.27s.19.07.22.12H.2l.17.07L.18,7l0,0A.12.12,0,0,1,.33,7c.07.08-.1.21-.18.21l.13.2a.24.24,0,0,1-.12-.07c.15.11-.17,0,0,.12a.49.49,0,0,1,.12,0,.19.19,0,0,0-.05.25l-.11,0a2.8,2.8,0,0,0,0,.48c.05-.06.23,0,.25,0H.24c.1,0,.06,0,.18,0s-.18,0-.24,0l.06.08s-.07,0-.14,0c.1,0-.16.13,0,.18h0a3,3,0,0,0,.06.38c.14,0,.11.06.22.1s-.15.21-.14.33.12,0,.2.07c-.13,0-.11.12-.21.06a.92.92,0,0,0,.13.37c.06,0,.08,0,.12,0s0,.08-.11.07h0c.2.21-.37.48-.1.64h0l.14.17c0,.08-.09,0-.17,0,.21.19,0,.29.11.44-.38.12,0,.42-.21.58H.15c.09,0,0,.05-.07.08s.08,0,.13,0c.11.34-.13.71-.21,1.07,0,.13.46.07.25.23l-.17,0c.2.26,0,.53.16.79,0,0-.08,0-.08,0s0,.2.09.2-.09,0-.14,0,.15.14,0,.17a.09.09,0,0,1,0,0c.06,0,0,.17.12.13-.07.1.06.19,0,.26.16.05-.07.17.14.19-.22,0-.18.16-.07.22-.07,0-.07.06-.17,0A.13.13,0,0,0,.26,15c-.27.13.22.26-.12.33a2.42,2.42,0,0,1,.25.59c-.22,0,0-.21-.26-.2.1.17.29.28.24.45s-.1,0-.14,0c.09.18,0,.34.1.5l-.06,0s0,.07.07.07l0,0c.15-.05.31.12.39.13-.29-.05-.07.15-.44.07a.14.14,0,0,0,.13,0s-.06,0-.14,0,.17.07.17.17a.79.79,0,0,1-.13,0c.1.05.19.1.15.19s-.07,0-.07,0c0,.14.26.24.17.4-.22,0-.07.06-.26.06l.06.09.09,0c0,.07.13.14.07.2l-.08-.05,0,.14.07-.08c.09.07.23,0,.18.09s0,.07-.11.11h0c.06,0,.12.08.07.13a1.91,1.91,0,0,1-.24,0c.15,0,0,.18.21.22H.48l.13,0s-.06,0-.14,0,.24,0,.13.09,0,0,0,0,.08.24,0,.36,0-.1-.2-.06c0,.16.22.34.18.5l0,0c.27,0-.13.12,0,.2s-.14,0-.11,0,.06.22.15.39l-.07,0c-.06.06,0,.16-.07.23s.06.07.16,0c-.39.22.21.41-.12.6,0,0-.06-.05-.06,0l.06.17c.12,0,.07,0,.16-.06s.13.07.13.11S.6,21,.54,21s.07,0,.11,0c-.21.09.23,0,.09.13H.68s.11.08.09.13S.71,21.2.6,21.2s.25.13.12.19,0-.07-.07-.1-.12.07-.15.12h0l-.07.11,0,0c.35.08.06.17.29.28-.21-.11-.12,0-.27,0s-.09.07-.14.06c.13.05-.09.09.09.16,0,0,0,.06-.13,0,0,.07.08,0,.14,0s-.2.25,0,.4.26.15.34.28c-.08,0-.18,0-.18,0s-.05.12,0,.18a.21.21,0,0,0-.13,0c0,.05.18,0,.1.1l-.19-.05c0,.06.13.11.18.17S.48,23,.42,23s.08.17.21.19l.05,0s-.11,0-.14,0,0-.08.1-.08l0,0c.29,0-.05-.17,0-.26l.21,0-.17-.09s.17,0,.2,0-.08-.06,0-.11,0,0,0,0l-.06-.06s.15,0,.12,0-.16-.18,0-.22H1c-.07-.15-.15,0-.33-.13l.38-.07-.15,0s0-.05.07,0c-.1-.06-.06,0-.16,0C1,22.09.76,22,1,21.94c-.12,0-.09.07-.17,0,.26,0,0-.09.07-.16s.06.09.19,0c-.23,0,0-.13,0-.19S1,21.47,1,21.37s.1-.18.16-.27h0C1,21.09,1,21,1,20.93a.3.3,0,0,1,.21.05v-.07a.13.13,0,0,1-.11-.07H1.2c0-.08-.16-.17-.07-.28-.13,0-.35.09-.44,0,.07,0,.19,0,.22,0s-.06,0,0-.06l.11,0c.06,0-.09,0-.08-.07s.07,0,.15,0,0,0,0,.05a.19.19,0,0,1,.15-.12c-.06,0-.14,0-.15,0s.12,0,.17-.08,0-.08-.15-.08c0,0,.07,0,.11,0S1.18,20,1,20H1c-.14-.14.09-.3,0-.44h.05c-.05-.09,0-.19-.14-.25s.09-.06.15,0-.09-.07,0-.17c.09.07.08,0,.06.07.05-.09.12-.11,0-.2.13,0,.16-.06.12-.1l-.09.06a.19.19,0,0,1,0-.13l.17,0c.2-.18-.34-.32,0-.45-.12-.05-.09.09-.22.05s.26-.16.26-.18-.24-.11-.18-.22S1,18.07.91,18s.24-.1.29-.05,0,0,0,0,0,.06.11,0H1.22c.06,0,.05-.15.15-.12-.06-.06-.1,0-.13,0s0-.16.06-.26-.1,0-.1,0-.11-.06-.14-.17.22,0,.14-.08.16,0,.21,0c-.12-.1.07-.18.1-.24l0,.06a.11.11,0,0,1,0-.09l-.12,0s0-.05.07-.05-.2,0-.31,0c.06,0-.06-.12.1-.13-.06.12.16,0,.18.09a.06.06,0,0,1,0-.08l0,0c.15-.12-.17-.06-.17-.18s.17,0,.15-.05-.15,0-.22,0-.05-.09,0-.13l0,.05c-.09,0-.08-.06-.11-.11s.05,0,.08,0c-.16-.06.16-.14.06-.23.06,0,.16,0,.2,0s.13-.1,0-.2-.09,0-.21,0l.09.17-.17-.11c0,.05.07.11.05.14s-.07-.05-.17,0c.18-.07-.1-.14,0-.22h.3c.13-.12-.16-.21-.08-.36l-.05,0c-.12,0,0-.1-.07-.15a.3.3,0,0,0,.2,0c-.07,0,0-.11-.19-.12l.13-.07C1.34,15.16,1,15.15,1,15c.11,0,.18,0,.25.06s0-.08,0-.08-.14-.11,0-.15-.15,0-.14-.06a.08.08,0,0,1,.05,0c-.05,0-.07-.07-.18,0,.31-.13,0-.35.24-.46A1.34,1.34,0,0,1,1.11,14s0,0,0,0S.87,14,1,13.86s.09.07.15,0c.32,0-.05-.15.14-.23l0,0c.11-.07-.12-.16-.1-.26h.05A.53.53,0,0,1,1,13.11c.13,0,.07.05.2,0s-.21,0-.24-.08a.64.64,0,0,1,.26-.1V13c.18,0,0-.11,0-.15h.07c0-.13-.22-.13-.2-.27l-.06,0c-.2-.08.11-.07,0-.14l.2,0A1.05,1.05,0,0,1,1,12.2a1.14,1.14,0,0,1,.31.23s0-.17-.11-.2.07,0,0,.07S1,12.15,1,12.06c.38,0,.09-.26.39-.34-.14-.17.06-.35,0-.55-.3.07,0-.06-.32-.05,0,0,0-.07,0-.07l.18-.14c.09,0,.07,0,.14,0s.13,0,.21-.12c-.11,0-.16,0-.12-.09l-.14.08c-.16-.14.26-.12.1-.27l.09,0c-.05-.07,0-.27-.24-.35,0,0,.12,0,.14,0,0-.18-.26-.4-.11-.54h.08s-.14-.06-.07-.1.08,0,.08,0-.13-.09-.09-.13l.09,0c.09-.17-.21-.27-.26-.41a.34.34,0,0,0,.33-.21h0c0-.21-.18-.35-.27-.54.24-.12.1-.4.23-.59a.19.19,0,0,1-.19,0c.05,0-.15-.12.05-.11h0c.19,0,.14-.12.15-.19l-.27,0c.39-.18-.14-.49.21-.59-.07,0-.07-.1-.14-.14h.15a.64.64,0,0,0,0-.34l.1,0c0-.09-.41-.11-.42-.19l.21,0c0-.15.18-.3,0-.45,0,0,.09,0,.1,0s.15-.28-.14-.25c.19,0,0-.16-.07-.24h.14c-.18-.07-.23-.07-.28-.17s.12,0,.08,0S1.05,5,1.12,4.94l.09,0c0-.08,0-.08-.14-.12s0-.15.16-.16c-.07,0-.18,0-.14-.1a.1.1,0,0,1,.09,0c.1-.13-.16-.2,0-.29h.08c0,.1,0,.19,0,.18s.15-.09.33,0c-.1-.07-.31-.18-.25-.26l0,0h0s0,0,0,0a.25.25,0,0,0,0-.07c.1,0,.05-.09.06-.14S1.32,3.9,1.2,4s0,0,0,0V4h0s0,.07,0,.11S1.11,4,1.19,4L1,3.94c.19-.06.3-.17.42-.19-.08-.13,0-.3-.31-.38,0,0,.07,0,.11-.06s0,0,.06.06,0-.22-.21-.23c.09-.1.17,0,.14-.08l.06,0c.29-.25-.47-.41-.09-.68,0,0,0,0-.07,0,.17-.31-.16-.65.11-1,.05-.09-.07-.1-.16-.15l.16,0L1,1.21c-.13-.13.37-.23.13-.39L1,.84c0-.06-.06-.19.06-.18S1,.64,1,.62h.08L1,.47c.05-.11.31,0,.33-.15A.43.43,0,0,0,1,.17S1,.24.89.24l0-.06C.62.17.38.13.22.27L.36.36.25.39V.31c-.1,0,0,.08,0,.11a.24.24,0,0,0-.12,0L.39.55C.3.57.21.51.16.57c.1.05.21,0,.27,0-.1,0-.19,0-.1.08a.14.14,0,0,1-.12,0c.07,0,0,.12.15.15C.23.87.4,1,.18,1c.05,0,.17.08.18.12-.27-.08,0,.17-.3.15.24.06.1.21.24.32,0,0-.06,0,0,0s-.09.08-.14.12c.2,0,.25.1.37.15-.19.07-.23-.05-.42,0,.16,0,.16.13.3.11A.57.57,0,0,1,.14,2c.24,0,0,0,.19.1-.12.08-.23,0-.16.11S0,2.13,0,2.13ZM.44,4.24h0v0S.43,4.22.44,4.24Zm0,.17V4.34s.1,0,.1,0S.48,4.39.44,4.41Zm1-.37s0,0,0,0a.11.11,0,0,0,0,0h0Z" fill="#e9e9e9"/><path d="M1.23,4a0,0,0,0,1,0,0h0Z" fill="#e9e9e9"/><path d="M1,20H1Z" fill="#e9e9e9"/><polygon points="0.17 6.86 0.2 6.86 0.17 6.84 0.17 6.86" fill="#e9e9e9"/><path d="M.54,21h0Z" fill="#e9e9e9"/><path d="M.5,21.41l0,.06S.5,21.43.5,21.41Z" fill="#e9e9e9"/><path d="M.44,21.73h0Z" fill="#e9e9e9"/><path d="M.27,16.59h0Z" fill="#e9e9e9"/><path d="M.6,18.12a.18.18,0,0,1-.07-.05S.52,18.12.6,18.12Z" fill="#e9e9e9"/><polygon points="0.1 14.88 0.1 14.88 0.1 14.87 0.1 14.88" fill="#e9e9e9"/><path d="M.53,18s0,.05,0,.07S.56,18,.53,18Z" fill="#e9e9e9"/><path d="M.37,23.14h0Z" fill="#e9e9e9"/><path d="M.39,23.15v0S.4,23.16.39,23.15Z" fill="#e9e9e9"/><path d="M.44,23.21l0,0S.4,23.2.44,23.21Z" fill="#e9e9e9"/><path d="M.44,22.71h0Z" fill="#e9e9e9"/><path d="M.42,22.58s-.11.08-.08.12h0C.31,22.68.51,22.61.42,22.58Z" fill="#e9e9e9"/><path d="M1.05,22l0,.11c.06,0,.13,0,.14,0C1.31,22,1,22.18,1.05,22Z" fill="#e9e9e9"/><path d="M1.13,21.7c0,.06.08,0,.11,0S1.18,21.65,1.13,21.7Z" fill="#e9e9e9"/><path d="M1.13,19.25h.13C1.24,19.21,1.21,19.26,1.13,19.25Z" fill="#e9e9e9"/><polygon points="0.47 18.79 0.39 18.83 0.51 18.85 0.47 18.79" fill="#e9e9e9"/><polygon points="1.38 18.51 1.4 18.53 1.35 18.45 1.38 18.51" fill="#e9e9e9"/><path d="M1.34,14.41H1.18S1.38,14.46,1.34,14.41Z" fill="#e9e9e9"/><path d="M1.18,12.64c.07,0,.12-.07.05-.1S1.15,12.62,1.18,12.64Z" fill="#e9e9e9"/><polygon points="1.43 7.33 1.48 7.36 1.44 7.29 1.43 7.33" fill="#e9e9e9"/><path d="M39,22.84s0-.14,0-.12l0,.17Z" fill="#e9e9e9"/><path d="M38.61,22.54a.41.41,0,0,0-.1.37c.06-.16.08-.09.15-.28.05,0,.1.05.09.11s.08,0,.11-.07-.16-.13-.26,0A.14.14,0,0,1,38.61,22.54Z" fill="#e9e9e9"/><path d="M33.19,22.28l0,0A.05.05,0,0,0,33.19,22.28Z" fill="#e9e9e9"/><path d="M29.84,22.19s0,0,0,0S29.83,22.17,29.84,22.19Z" fill="#e9e9e9"/><path d="M29.27,22h0S29.28,22,29.27,22Z" fill="#e9e9e9"/><path d="M33.19,22.28l-.09-.05C33.1,22.28,33.15,22.27,33.19,22.28Z" fill="#e9e9e9"/><path d="M37.86,22.94a.12.12,0,0,0,0-.05l0,0Z" fill="#e9e9e9"/><path d="M34.67,22.14h0a.11.11,0,0,0,0-.06Z" fill="#e9e9e9"/><path d="M35.81,22.12s0,.13-.05.2,0-.09.06-.1A.38.38,0,0,0,35.81,22.12Z" fill="#e9e9e9"/><path d="M37.61,22.37l0,0Z" fill="#e9e9e9"/><path d="M33.86,22.11s0,0,0-.05A.07.07,0,0,0,33.86,22.11Z" fill="#e9e9e9"/><path d="M2.12,23.17a0,0,0,0,0,0,0Z" fill="#e9e9e9"/><path d="M.81,22.47h0v-.08Z" fill="#e9e9e9"/><path d="M28.22,21.83Z" fill="#e9e9e9"/><path d="M18.6,21.93c.11.13-.18.16,0,.3C18.57,22.18,18.74,22,18.6,21.93Z" fill="#e9e9e9"/><path d="M37.83,22.92h0Z" fill="#e9e9e9"/><path d="M18.59,22.23Z" fill="#e9e9e9"/><path d="M25.81,21.91a.11.11,0,0,0,0,.06Z" fill="#e9e9e9"/><path d="M27.6,22.11l0,0Z" fill="#e9e9e9"/><path d="M24.87,22.11s0,0-.06,0h0S24.84,22.09,24.87,22.11Z" fill="#e9e9e9"/><path d="M23.9,22.11s0,0,0,0h0Z" fill="#e9e9e9"/><path d="M5.08,23.1A.61.61,0,0,1,5,23C5.05,23.08,4.91,23.11,5.08,23.1Z" fill="#e9e9e9"/><path d="M37.86,22.86s0,.05,0,.06h0A0,0,0,0,0,37.86,22.86Z" fill="#e9e9e9"/><path d="M24.83,23.22l-.15,0Z" fill="#e9e9e9"/><path d="M12.05,23.08l0,0S12,23.1,12.05,23.08Z" fill="#e9e9e9"/><path d="M24.22,23.22a.3.3,0,0,0-.09-.1l0,0Z" fill="#e9e9e9"/><path d="M5,23Z" fill="#e9e9e9"/><path d="M4,23.31c.14,0,.07-.18.1-.29s.08.14.14.23.19-.22.27-.21,0,0,0,.08c.11-.15.34,0,.48-.19A.09.09,0,0,1,5,23a1.28,1.28,0,0,1,0-.26c.07,0,.13-.11.15,0s0,0-.06.08l.07,0c.06.17-.1.06-.1.18.14-.05.29-.2.4-.15s-.24.06-.11.21l-.16-.06c.13.26-.09,0,0,.26.21.05.23-.08.44,0,0-.1,0-.14,0-.24.29-.17.23.43.45.2.06-.11.08-.32.24-.21l-.06.19c.21,0,.12-.27.33-.14,0,.07-.16.06-.13.08s.1-.11.21-.11l0,.17c.21,0,.45-.15.69-.18,0,.05,0,.11,0,.16a1.58,1.58,0,0,1,.93.12l.12-.15s0,.07,0,.1,0-.1.06-.15.08.08,0,.13c.2-.13.57-.27.78-.12l0,.05c.17.06.19-.3.34-.17l0,0c.36.06.76-.07,1,.15,0-.21.35.1.38-.2.2.15.14.2.43.3.08,0,.11-.19.21-.22v.16l.13-.16.07.18.09,0A.11.11,0,0,1,12,23c.14-.07.34.1.34.18l.33-.13c0,.06-.06.09-.11.13.18-.16,0,.16.2,0,0,0,0-.09,0-.12a.45.45,0,0,0,.4.06l0,.1a7.29,7.29,0,0,0,.79,0c-.09-.05-.07-.23,0-.25l0,.16c.05-.1-.08-.06,0-.18s.07.18,0,.24l.13-.06a.89.89,0,0,1,0,.14c0-.1.21.16.29,0v.05c.28,0,.4-.05.62-.06,0-.14.1-.11.16-.22a1.93,1.93,0,0,0,.55.14c.14-.07,0-.12.1-.2,0,.13.21.11.1.21a2,2,0,0,0,.61-.13c0-.06-.07-.08-.05-.12s.12.05.11.11v0c.34-.2.78.37,1,.1v0l.28-.14c.13,0-.08.09,0,.17.3-.21.47,0,.72-.11.19.38.67,0,.93.22v-.09c.06-.09.08,0,.13.07s-.07-.08,0-.13a5.53,5.53,0,0,1,1.74.21c.21,0,.12-.46.39-.25l-.08.17c.43-.2.88,0,1.3-.16,0,0,0,.08-.07.08s.33,0,.33-.09,0,.09.05.14.23-.15.27,0,0,0,0,0,.27,0,.22-.12c.15.07.3-.06.42,0,.08-.15.27.07.3-.14,0,.22.27.18.37.07,0,.07.09.07.05.17s.22,0,.2-.16c.21.27.42-.22.53.13a4.76,4.76,0,0,1,1-.26c0,.22-.34,0-.33.26.29-.1.46-.29.74-.23.08,0,0,.09-.07.13.29-.09.56,0,.81-.1,0,0,0,0-.05.06s.12,0,.11-.07l-.05,0c-.08-.15.2-.31.21-.39-.08.29.25.07.12.44a.14.14,0,0,0,.07-.13s.06.06,0,.14c.18-.06.12-.17.28-.17,0,.05,0,.07-.05.13.08-.1.17-.19.3-.15s0,.07,0,.07c.24,0,.4-.26.66-.17-.07.22.09.07.11.26l.14-.05-.06-.1c.12,0,.23-.13.34-.07l-.09.08.22,0-.13-.07c.13-.09,0-.23.15-.18,0,0,.13,0,.19.11h0c.06-.06.12-.12.21-.07s0,.2,0,.24c.06-.15.29,0,.36-.21a.3.3,0,0,0,0,.16l.05-.13c.05,0,.06.06.05.14.17,0-.05-.23.15-.13,0,0,0,0,0,.05.2.05.39-.08.58,0s-.17,0-.1.2c.27,0,.56-.22.82-.18l-.05,0c0-.26.19.13.32,0,0,0,0,.14,0,.11.18.05.37-.06.64-.14l0,.06a1.78,1.78,0,0,0,.39.07c0-.07.1-.06.06-.16.35.39.67-.2,1,.12,0,0-.08.06,0,.06l.26-.06c0-.12,0-.07-.09-.16a.22.22,0,0,1,.17-.13c-.12.08,0,.19.06.25s0-.07,0-.11c.14.21,0-.23.21-.09v.06c.07,0,.14-.11.22-.09s-.08.06-.08.17.21-.25.3-.12-.11,0-.15.07.12.12.19.15h0l.18.07,0,0c.14-.35.27-.06.45-.29-.17.21,0,.12,0,.28s.12.08.1.13c.08-.13.14.09.26-.09,0,.05.09,0,.07.13.11,0,0-.08,0-.14.17-.17.4.2.65,0s.25-.26.44-.34c.07.08-.05.18-.05.18a.24.24,0,0,0,.29,0s0,.08,0,.13.05-.17.16-.1a.77.77,0,0,1-.08.19c.1,0,.19-.13.29-.18s-.06.13-.1.19c.12,0,.29-.08.33-.21l-.07-.05s0,.11,0,.14-.14-.05-.15-.1l.07,0c-.07-.28-.28.05-.42,0l.06-.21-.15.17c0-.05,0-.17,0-.2-.1-.1-.09.08-.18,0s0,0,0,0l-.1.06s0-.15,0-.12c-.18-.12-.29.16-.35,0h0c-.25.07,0,.15-.21.33l-.12-.38,0,.16s-.07,0-.06-.08c-.1.1,0,.06,0,.16-.13-.14-.34.07-.37-.18,0,.12.12.09,0,.17,0-.26-.15.05-.27-.07,0-.14.14-.06,0-.18-.07.22-.22-.05-.31,0s-.21.07-.37.14c0-.07-.29-.1-.44-.17v0c0,.18-.18.15-.29.19a.23.23,0,0,1,.08-.21h-.1a.2.2,0,0,1-.12.12l0-.14c-.14,0-.28.16-.46.07,0,.13.15.35,0,.44,0-.07,0-.19,0-.22s-.06.06-.09,0l.08-.11c-.08-.06,0,.09-.11.08s0-.07,0-.15.06,0,.08,0a.3.3,0,0,1-.19-.16c0,.06,0,.14,0,.15s-.05-.12-.13-.17-.12,0-.13.15,0-.07-.06-.11-.34,0-.25.17h0c-.23.15-.49-.08-.72,0v-.05c-.14.06-.31,0-.41.14s-.1-.09-.08-.15-.12.09-.27,0c.1-.09,0-.08.11-.06-.14-.05-.17-.12-.32,0,.05-.13-.11-.16-.17-.12l.09.09a.45.45,0,0,1-.2,0l0-.17c-.29-.2-.52.34-.73,0-.08.11.15.08.09.21S30.4,22,30.36,22s-.17.24-.36.18a.21.21,0,0,1-.09.28c-.13,0-.16-.25-.08-.3a0,0,0,0,1,.05,0s.1,0,0-.11v.06c-.07-.06-.25-.05-.21-.15-.09.06,0,.1,0,.13-.17-.09-.27,0-.44-.06,0,0,.05.1,0,.1-.26-.07-.11.11-.29.14s0-.22-.13-.14,0-.16,0-.21c-.16.12-.3-.07-.39-.09l.09-.05a.18.18,0,0,1-.14,0l.05.12c-.05,0-.09,0-.09-.07s0,.2-.06.31c-.06-.06-.2.06-.22-.1.21.06,0-.15.15-.18a.13.13,0,0,1-.12,0,0,0,0,0,1,0,0c-.19-.14-.09.17-.29.17,0-.09-.05-.17-.08-.15s0,.15,0,.22-.14.05-.21,0l.08,0c0,.09-.09.08-.18.11s.08-.05.05-.08c-.1.16-.23-.16-.37-.06-.06-.06,0-.16-.06-.2s-.17-.13-.33,0c0,.12.05.09-.06.21L27,22l-.18.18c.08,0,.18-.08.22-.06s-.07.07,0,.17c-.11-.18-.22.1-.35,0V22c-.19-.14-.34.15-.6.07l.09.05c0,.12-.16,0-.24.07,0-.1-.05-.14-.08-.2s-.18,0-.21.19L25.51,22c-.2-.05-.23.28-.43.25.06-.11,0-.18.1-.25-.06,0-.12,0-.12,0s-.18.13-.24,0c0,.05,0,.15-.11.14a.08.08,0,0,1,0-.05c0,.05-.12.07-.05.18-.21-.31-.57,0-.74-.24a4.14,4.14,0,0,1-.45.07s0-.05,0,0c-.18-.09-.11.28-.32.18s.11-.08.05-.14c0-.33-.25,0-.38-.15l0,0c-.11-.11-.26.12-.43.1a.08.08,0,0,0,0-.05.83.83,0,0,1-.5.27c.05-.13.08-.07,0-.2s0,.21-.12.25-.15-.14-.17-.27h.14c-.07-.18-.18,0-.25,0V22c-.22,0-.22.22-.45.2l0,.06c-.13.2-.11-.11-.23,0l0-.2a2,2,0,0,1-.44.23c.09-.15.26-.22.37-.31-.09,0-.28,0-.32.11s.07-.06.1,0a.43.43,0,0,1-.39.22c0-.38-.43-.09-.54-.39-.29.14-.58-.06-.91,0,.12.3-.1,0-.08.32-.08,0-.11,0-.11,0l-.24-.18c-.06-.09.07-.07.07-.14-.17,0-.07-.13-.19-.21,0,.11-.06.16-.16.12l.14.14c-.24.16-.2-.26-.45-.1l.08-.09c-.12.05-.46,0-.58.24,0,0-.05-.12,0-.14-.3,0-.66.26-.89.11l0-.08s-.09.14-.16.07,0-.08,0-.08S16.09,22,16,22l.07-.09c-.29-.09-.45.21-.69.26,0-.22-.22-.29-.34-.33v0c-.34,0-.57.18-.88.27-.2-.24-.66-.1-1-.23,0,0,0,.17-.06.19S13,22.17,13,22h0c-.05-.19-.2-.14-.32-.15l0,.27c-.3-.39-.8.14-1-.2-.08.06-.17.06-.24.13v-.15a1.69,1.69,0,0,0-.56,0l.06-.1c-.15,0-.18.41-.32.42l0-.21c-.25,0-.5-.18-.75,0,0,0,0-.09.05-.1-.12,0-.45-.15-.41.14,0-.18-.25,0-.39.07l0-.14c-.11.18-.11.23-.27.28s0-.12,0-.08c-.12-.07-.09.13-.24.06l.05-.09c-.13,0-.12,0-.19.14s-.24,0-.26-.16c0,.08-.09.18-.16.14a.08.08,0,0,1,0-.09c-.22-.09-.32.16-.47,0a.17.17,0,0,0,0-.09,1.79,1.79,0,0,1,.29,0c0-.13-.14-.15,0-.33-.11.1-.3.31-.43.25s0,0,0,0v0a.08.08,0,0,0-.08,0l-.11,0c0-.1-.16-.05-.23-.06,0,.14-.08.12,0,.24s0,0,.06,0h.2c-.06.07-.12.13-.19.06l-.1.22c-.09-.19-.27-.3-.3-.42-.21.08-.49,0-.62.32-.06,0-.07-.08-.1-.12s.08,0,.1-.06-.36,0-.38.21c-.15-.08.08-.17-.13-.14l0-.06c-.4-.29-.66.47-1.11.1,0,0,0,0,0,.06-.51-.17-1.06.16-1.56-.11-.15-.05-.16.07-.25.16l0-.16-.15.18c-.22.13-.37-.37-.64-.13l0,.1c-.09,0-.3.06-.29-.06s0,.11-.07.06v-.08l-.24.13c-.18-.05,0-.31-.24-.33-.1,0-.28.23-.25.29a.13.13,0,0,1,.11.13l-.09,0c0,.23-.09.47.14.63L1.12,23l0,.11H1c.08.1.12,0,.18,0a.17.17,0,0,0,.06.12l.16-.22c0,.09-.07.18,0,.23.07-.1-.07-.2.05-.27.08.1.05.19.14.1,0,.06,0,.1,0,.12s.21,0,.25-.15c.08.13.26,0,.25.19,0-.06.14-.18.21-.19-.13.27.27,0,.24.3.1-.24.35-.1.52-.24,0,0,0,.06,0,.05s.12.09.19.14c0-.2.16-.24.24-.37.12.19-.07.23,0,.42,0-.16.2-.16.16-.29.09.11.08.05.13.21,0-.24.08,0,.16-.19.13.12,0,.23.18.16S4,23.31,4,23.31Zm3.43-.42Zm.29,0H7.62c0-.05,0-.1,0-.1S7.7,22.84,7.74,22.88Zm-.61-1s.06,0,.07,0H7.12v0A.64.64,0,0,1,7.13,21.91Z" fill="#e9e9e9"/><path d="M7.05,22.09H7l0,0v-.05Z" fill="#e9e9e9"/><path d="M33.24,22.3h0a0,0,0,0,1,0,0Z" fill="#e9e9e9"/><polygon points="11.73 23.15 11.73 23.12 11.71 23.15 11.73 23.15" fill="#e9e9e9"/><path d="M34.83,22.78a.05.05,0,0,0,0,0S34.84,22.8,34.83,22.78Z" fill="#e9e9e9"/><path d="M35.51,22.82l.1.05A.19.19,0,0,0,35.51,22.82Z" fill="#e9e9e9"/><path d="M36,22.89a.18.18,0,0,0,0-.06h0Z" fill="#e9e9e9"/><path d="M27.64,23.05h0Z" fill="#e9e9e9"/><path d="M30.14,22.72l-.08.07S30.14,22.8,30.14,22.72Z" fill="#e9e9e9"/><path d="M24.85,23.22Z" fill="#e9e9e9"/><path d="M29.94,22.79a.13.13,0,0,0,.12,0S30,22.76,29.94,22.79Z" fill="#e9e9e9"/><path d="M38.33,23h0v0Z" fill="#e9e9e9"/><path d="M38.36,22.93h0Z" fill="#e9e9e9"/><path d="M38.45,22.88l-.06,0S38.43,22.92,38.45,22.88Z" fill="#e9e9e9"/><path d="M37.63,22.88v.06A.11.11,0,0,0,37.63,22.88Z" fill="#e9e9e9"/><path d="M37.42,22.9s.13.11.2.08v0C37.59,23,37.47,22.81,37.42,22.9Z" fill="#e9e9e9"/><path d="M36.53,22.27l.18,0s-.07-.13,0-.14C36.5,22,36.77,22.29,36.53,22.27Z" fill="#e9e9e9"/><path d="M36,22.19c.1,0,0-.08,0-.11S35.91,22.14,36,22.19Z" fill="#e9e9e9"/><path d="M32,22.19v-.13C31.93,22.08,32,22.11,32,22.19Z" fill="#e9e9e9"/><polygon points="31.23 22.85 31.3 22.93 31.33 22.81 31.23 22.85" fill="#e9e9e9"/><polygon points="30.78 21.94 30.81 21.92 30.68 21.97 30.78 21.94" fill="#e9e9e9"/><path d="M24.07,22l0,.15C24.14,22.11,24.15,21.94,24.07,22Z" fill="#e9e9e9"/><path d="M21.18,22.15c0-.08-.11-.13-.16-.06S21.15,22.17,21.18,22.15Z" fill="#e9e9e9"/><polygon points="12.5 21.89 12.56 21.84 12.45 21.88 12.5 21.89" fill="#e9e9e9"/><path d="M39.44.3s-.14,0-.12,0l.16,0Z" fill="#e9e9e9"/><path d="M39.13.52a.61.61,0,0,0,.38.06c-.16,0-.1,0-.29-.09,0,0,.06-.06.12,0s0,0-.07-.07-.13.1,0,.15S39.16.52,39.13.52Z" fill="#e9e9e9"/><path d="M38.88,3.76l0,0Z" fill="#e9e9e9"/><path d="M38.78,5.77s0,0,0,0Z" fill="#e9e9e9"/><path d="M38.6,6.11s0,0,0,0S38.59,6.11,38.6,6.11Z" fill="#e9e9e9"/><path d="M38.88,3.76l-.06.06C38.88,3.82,38.86,3.79,38.88,3.76Z" fill="#e9e9e9"/><path d="M39.53,1s0,0,0,0l0,0Z" fill="#e9e9e9"/><path d="M38.74,2.88v0h-.07Z" fill="#e9e9e9"/><path d="M38.72,2.2a.66.66,0,0,0,.19,0,.11.11,0,0,1-.09,0Z" fill="#e9e9e9"/><path d="M39,1.12l0,0S39,1.11,39,1.12Z" fill="#e9e9e9"/><path d="M38.71,3.36h0Z" fill="#e9e9e9"/><path d="M39.77,22.36h0S39.77,22.37,39.77,22.36Z" fill="#e9e9e9"/><path d="M39.07,23.15h0Z" fill="#e9e9e9"/><path d="M38.42,6.74h0S38.41,6.73,38.42,6.74Z" fill="#e9e9e9"/><path d="M38.53,12.5c.12-.07.16.11.3,0C38.77,12.52,38.61,12.42,38.53,12.5Z" fill="#e9e9e9"/><path d="M39.51,1s0,0,0,0S39.52,1,39.51,1Z" fill="#e9e9e9"/><path d="M38.83,12.51Z" fill="#e9e9e9"/><path d="M38.51,8.19l.06,0Z" fill="#e9e9e9"/><path d="M38.71,7.11l0,0Z" fill="#e9e9e9"/><path d="M38.71,8.74s0,0,0,0h0S38.68,8.76,38.71,8.74Z" fill="#e9e9e9"/><path d="M38.71,9.33h0v0Z" fill="#e9e9e9"/><path d="M39.7,20.59a.5.5,0,0,1-.13,0C39.67,20.61,39.71,20.7,39.7,20.59Z" fill="#e9e9e9"/><path d="M39.45,1s.06,0,.06,0V1A.06.06,0,0,0,39.45,1Z" fill="#e9e9e9"/><path d="M39.81,8.77l0,.09A.15.15,0,0,0,39.81,8.77Z" fill="#e9e9e9"/><path d="M39.68,16.42l0,0S39.7,16.42,39.68,16.42Z" fill="#e9e9e9"/><path d="M39.81,9.14a.15.15,0,0,0-.09,0h0Z" fill="#e9e9e9"/><path d="M39.57,20.62Z" fill="#e9e9e9"/><path d="M39.91,21.23c0-.09-.19,0-.29-.06s.13-.05.23-.09c-.05-.06-.22-.11-.21-.16a.21.21,0,0,1,.08,0c-.15-.07,0-.21-.19-.29h0a1.09,1.09,0,0,1-.25,0s-.12-.07,0-.09,0,0,.09,0l-.06,0c.18,0,.06.06.19.06-.06-.08-.2-.18-.15-.24s.06.15.21.06l-.07.1c.27-.07,0,.06.27,0,.05-.13-.09-.14,0-.27s-.14,0-.23,0,.43-.14.2-.27-.33,0-.21-.14l.19,0c0-.12-.28-.07-.15-.19s.07.09.09.07-.11,0-.11-.12h.17c0-.13-.15-.27-.18-.42a.19.19,0,0,0,.15,0,.65.65,0,0,1,.13-.56l-.15-.07s.07,0,.09,0-.09,0-.15,0,.09,0,.13,0c-.12-.12-.27-.35-.11-.47l0,0c.06-.1-.3-.11-.16-.2l0,0c.06-.22-.07-.45.15-.62-.21,0,.09-.21-.2-.22.14-.13.2-.09.29-.26s-.18-.07-.21-.13h.15l-.16-.08.19,0,0,0a.17.17,0,0,1-.12,0c-.07-.08.11-.2.19-.2l-.13-.2c.06,0,.08,0,.12.06-.16-.1.16,0,0-.11a.45.45,0,0,1-.12,0,.18.18,0,0,0,.05-.24h.11a4.45,4.45,0,0,0,0-.47c-.05.06-.23,0-.25,0l.16,0c-.1,0-.06,0-.18,0s.18,0,.23,0l0-.07s.07,0,.13,0c-.1,0,.17-.12,0-.17h.05a2.86,2.86,0,0,0-.06-.37c-.14,0-.11-.06-.23-.1,0-.1.16-.21.15-.33s-.12,0-.21-.06c.13,0,.12-.12.21-.06a.69.69,0,0,0-.13-.36s-.07,0-.12,0,.06-.07.12-.07h0c-.19-.2.38-.47.11-.63h0L39.57,13c0-.08.1,0,.18,0-.21-.17,0-.28-.11-.43.38-.11,0-.4.21-.56h-.09c-.08,0,.05-.05.07-.08s-.08,0-.12,0c-.11-.34.13-.7.21-1,0-.13-.46-.07-.25-.23l.16,0c-.19-.26,0-.52-.16-.77,0,0,.09,0,.09,0s0-.2-.09-.2.09,0,.14,0-.16-.14,0-.16,0,0,0,0,0-.16-.12-.13c.06-.09-.06-.18,0-.25-.16,0,.07-.16-.15-.18.23,0,.18-.16.08-.22.07,0,.07-.06.16,0s0-.13-.16-.12c.27-.13-.22-.25.13-.32a2.31,2.31,0,0,1-.25-.57c.22,0,0,.2.25.19-.09-.17-.28-.27-.23-.44s.1,0,.14,0c-.09-.17,0-.33-.1-.49,0,0,0,0,.06,0s0-.07-.07-.07l0,0c-.15,0-.32-.12-.39-.13.29.06.07-.15.44-.07a.2.2,0,0,0-.13,0s0,0,.13,0-.16-.07-.16-.17a.79.79,0,0,1,.13,0c-.1,0-.2-.1-.15-.18s.06,0,.06,0c0-.15-.25-.25-.16-.4.22,0,.07-.05.26-.06L39.58,6l-.09,0c0-.08-.13-.14-.07-.2l.08,0,0-.14-.07.08c-.1-.07-.24,0-.18-.09s0-.07.11-.11h0c-.06,0-.12-.07-.08-.13h.25c-.16,0,0-.17-.21-.21h.16l-.13,0s.06,0,.14,0-.24,0-.14-.08,0,0,0,0-.08-.23,0-.35,0,.1.21.06c0-.16-.23-.33-.18-.49l0,0c-.27,0,.13-.11,0-.19s.15,0,.12,0-.06-.22-.15-.38l.07,0c.06-.07,0-.17.07-.24s-.06-.06-.16,0c.39-.21-.21-.4.12-.59,0,0,0,0,.06,0l-.07-.16c-.11,0-.07,0-.16,0s-.12-.06-.12-.1.19,0,.25,0a.4.4,0,0,1-.11,0c.21-.08-.23,0-.09-.13h.06s-.11-.08-.1-.13.07.05.18.05-.26-.12-.12-.18,0,.06.07.09.12-.07.14-.12h0l.07-.11,0,0c-.35-.08-.07-.17-.29-.27.21.1.12,0,.27,0s.09-.07.13-.06c-.12-.05.1-.08-.08-.15.05,0,0-.06.13-.05,0-.06-.09,0-.15,0s.2-.24,0-.39-.26-.15-.34-.26.17,0,.17,0,.06-.11,0-.17a.22.22,0,0,0,.13,0c0-.05-.18,0-.11-.1l.2,0c-.05-.06-.14-.11-.18-.17s.13,0,.18,0a.27.27,0,0,0-.21-.19l-.05,0s.12,0,.14,0,0,.08-.09.08l0,0c-.29,0,0,.17,0,.26l-.21,0,.17.09c-.05,0-.17,0-.2,0s.07.05,0,.1h0l.07.06c-.05,0-.15,0-.12,0-.12.11.15.18,0,.22h0c.07.14.16,0,.34.12l-.38.08H39s0,.05-.08,0c.11.06.07,0,.17,0-.14.08.06.21-.18.22.12,0,.09-.07.17,0-.26,0,.05.09-.07.16s-.07-.08-.19,0c.23,0,0,.13,0,.19s.07.12.13.22-.1.18-.16.27h0c.18,0,.14.11.18.18a.32.32,0,0,1-.2-.05v.06c.06,0,.09,0,.11.08l-.14,0c0,.08.17.17.07.27.13,0,.36-.08.45,0a.38.38,0,0,1-.22,0s.06,0,0,0l-.12,0c-.05,0,.1,0,.09.06s-.07,0-.15,0,0,0,0,0a.2.2,0,0,1-.15.11c.06,0,.13,0,.15,0s-.12,0-.17.07,0,.08.14.08-.07,0-.11,0,0,.21.18.16h0c.14.14-.09.3,0,.44h0c0,.08,0,.18.14.24s-.09.06-.15,0,.09.07,0,.16c-.09-.06-.08,0-.07-.06,0,.08-.12.1,0,.19-.13,0-.16.06-.12.1l.09-.06a.24.24,0,0,1,0,.12l-.16,0c-.21.17.34.31,0,.44.12,0,.08-.09.22,0,0,.07-.26.16-.26.18s.24.1.18.21.22,0,.27.06-.25.09-.29,0,0,0,0,0a.08.08,0,0,0-.11,0h.06c-.06,0-.06.15-.15.12s.09,0,.12,0,0,.16-.06.26.11,0,.11,0,.11.06.13.17-.21,0-.14.08-.15,0-.2,0c.11.09-.08.17-.1.23l0,0a.09.09,0,0,1,0,.08l.12,0s0,0-.07,0,.2,0,.3,0c-.06,0,.07.11-.09.13.05-.12-.16,0-.18-.09s0,0,0,.07,0,0,0,0,.18,0,.18.17-.17,0-.15,0,.15,0,.21,0,.05.09.05.13l0-.05c.09,0,.08.06.1.11s0,0-.07,0c.15.06-.17.14-.06.22-.06,0-.17,0-.21,0,.12.09-.12.1,0,.2s.09,0,.2,0l-.08-.16.17.11s-.07-.11-.05-.14.06,0,.16,0c-.18.07.11.14,0,.21h-.3c-.13.12.15.21.08.36l.05,0c.12,0,0,.09.06.14a.48.48,0,0,0-.19.05c.07,0,0,.11.19.12l-.13.07c-.05.12.28.14.25.26-.11,0-.18,0-.26-.06s0,.07.05.07.13.11,0,.15.15,0,.14.06H38.8c.05,0,.07.07.18,0-.31.12,0,.34-.25.45a.87.87,0,0,1,.08.26s-.05,0,0,0,.28.06.18.18-.09-.06-.15,0c-.32,0,.05.15-.14.23l0,0c-.11.06.12.15.1.25h-.05a.49.49,0,0,1,.26.3c-.12,0-.06,0-.19,0,0,0,.21,0,.24.07a.64.64,0,0,1-.27.1v-.08c-.18,0,0,.11,0,.15h-.08c0,.12.22.12.21.26h.06c.19.07-.11.06,0,.13l-.2,0a1.19,1.19,0,0,1,.23.26,1,1,0,0,1-.31-.22c0,.05,0,.17.11.19s-.07,0,0-.06.23.14.23.23c-.38,0-.1.26-.39.33.14.17-.06.34,0,.54.3-.07,0,.06.31,0,0,0,0,.06,0,.07l-.18.14c-.09,0-.07-.05-.14,0s-.13,0-.21.11c.11,0,.16,0,.11.09l.14-.08c.17.14-.25.12-.09.27l-.1-.05c.06.08,0,.28.25.35,0,0-.12,0-.14,0,0,.17.26.39.11.53l-.08,0s.14.06.07.1-.08,0-.08,0,.13.08.08.13l-.08,0c-.1.17.21.26.26.41a.33.33,0,0,0-.33.2h0c0,.2.18.34.27.53-.24.11-.1.39-.24.57a.28.28,0,0,1,.2,0c0,.05.15.12,0,.12v0c-.2,0-.14.12-.15.19h.26c-.38.19.15.48-.2.58.07.05.07.1.13.15h-.14a.64.64,0,0,0,0,.34l-.1,0c0,.08.41.1.42.18l-.21,0c0,.15-.19.3,0,.44,0,0-.09,0-.1,0s-.14.27.15.25c-.19,0,0,.15.07.23h-.14c.17.07.22.07.27.16s-.11,0-.07,0,.13.06,0,.15l-.08,0c0,.08,0,.07.14.11s0,.15-.17.16c.08,0,.18.05.15.1a.14.14,0,0,1-.09,0c-.1.13.16.19,0,.28h-.08c0-.1,0-.18,0-.17s-.15.08-.33,0c.1.07.31.18.25.26h-.06s0,0,0,.05,0,0,0,.06-.06.1-.06.14.12.05.23,0,0,0,0,0h0a.31.31,0,0,1,0-.1c.07,0,.13.06,0,.11l.23.06c-.2.05-.3.16-.42.18.07.12.05.29.31.37,0,0-.07,0-.12.06s0,0-.06-.06,0,.21.22.23c-.09.09-.17-.05-.14.07l-.06,0c-.3.25.47.4.09.67a.09.09,0,0,1,.07,0c-.17.31.15.63-.11.94-.05.08.06.09.15.14l-.15,0,.18.09c.12.13-.37.22-.13.39l.1,0c0,.06.06.19-.06.18s.11,0,.05,0H38.8l.14.14c-.06.12-.31,0-.33.15a.43.43,0,0,0,.28.15s0-.06.13-.07l0,.06a1,1,0,0,0,.64-.08l-.14-.1.11,0V23c.1,0,0-.07-.06-.1a.33.33,0,0,0,.13,0l-.22-.1c.09,0,.18.05.23,0-.11,0-.21.05-.28,0,.11,0,.2,0,.11-.08a.15.15,0,0,1,.12,0c-.07,0,0-.12-.15-.14.13-.05,0-.16.18-.16-.05,0-.17-.08-.18-.12.26.07,0-.16.3-.14-.24-.06-.11-.21-.24-.32,0,0,.06,0,.05,0s.09-.08.13-.11c-.19,0-.24-.1-.36-.15.19-.07.23,0,.41,0-.16,0-.16-.12-.29-.1.12,0,.06,0,.22-.07-.24,0,0,0-.19-.1.12-.08.23,0,.15-.11C39.82,21.15,39.91,21.23,39.91,21.23Zm-.43-2.06h0v0A.1.1,0,0,0,39.48,19.17Zm0-.17a.17.17,0,0,0,0,.07s-.09,0-.09,0S39.44,19,39.48,19Zm-1,.36s0,0,0,0,0,0,0,.05h0Z" fill="#e9e9e9"/><path d="M38.69,19.41a0,0,0,0,0,0,0h0Z" fill="#e9e9e9"/><path d="M38.9,3.74Z" fill="#e9e9e9"/><polygon points="39.75 16.61 39.71 16.61 39.74 16.63 39.75 16.61" fill="#e9e9e9"/><path d="M39.38,2.78h0Z" fill="#e9e9e9"/><path d="M39.41,2.37l.05-.05Z" fill="#e9e9e9"/><path d="M39.48,2.06h0Z" fill="#e9e9e9"/><path d="M39.65,7.09h0S39.67,7.11,39.65,7.09Z" fill="#e9e9e9"/><path d="M39.32,5.59l.07,0S39.4,5.59,39.32,5.59Z" fill="#e9e9e9"/><polygon points="39.82 8.76 39.81 8.76 39.81 8.77 39.82 8.76" fill="#e9e9e9"/><path d="M39.38,5.71a0,0,0,0,0,0-.07S39.36,5.69,39.38,5.71Z" fill="#e9e9e9"/><path d="M39.55.69v0h0Z" fill="#e9e9e9"/><path d="M39.53.67l0,0S39.51.67,39.53.67Z" fill="#e9e9e9"/><path d="M39.48.62l0,0S39.52.62,39.48.62Z" fill="#e9e9e9"/><path d="M39.48,1.1h0Z" fill="#e9e9e9"/><path d="M39.5,1.23s.1-.07.07-.12h0C39.61,1.13,39.41,1.2,39.5,1.23Z" fill="#e9e9e9"/><path d="M38.87,1.76l0-.1c-.06,0-.13,0-.14,0C38.6,1.79,38.89,1.62,38.87,1.76Z" fill="#e9e9e9"/><path d="M38.79,2.09s-.08,0-.11,0S38.74,2.14,38.79,2.09Z" fill="#e9e9e9"/><path d="M38.79,4.48h-.13S38.71,4.48,38.79,4.48Z" fill="#e9e9e9"/><polygon points="39.45 4.94 39.53 4.9 39.41 4.88 39.45 4.94" fill="#e9e9e9"/><polygon points="38.54 5.21 38.52 5.19 38.56 5.26 38.54 5.21" fill="#e9e9e9"/><path d="M38.58,9.22h.16S38.53,9.17,38.58,9.22Z" fill="#e9e9e9"/><path d="M38.74,11c-.08,0-.13.06-.05.09S38.76,11,38.74,11Z" fill="#e9e9e9"/><polygon points="38.49 16.15 38.43 16.12 38.48 16.18 38.49 16.15" fill="#e9e9e9"/><path d="M40,1.14S40,1,40,1l0,.17Z" fill="#e9e9e9"/><path d="M39.59.84a.37.37,0,0,0-.11.37c.07-.16.09-.09.16-.28.07,0,.11,0,.1.11s.1,0,.13-.07-.18-.13-.29,0A.14.14,0,0,1,39.59.84Z" fill="#e9e9e9"/><path d="M33.55.58l0,0Z" fill="#e9e9e9"/><path d="M29.81.49s0,0,0,0S29.8.47,29.81.49Z" fill="#e9e9e9"/><path d="M29.17.3l0,0S29.18.29,29.17.3Z" fill="#e9e9e9"/><path d="M33.55.58l-.1,0S33.5.57,33.55.58Z" fill="#e9e9e9"/><path d="M38.75,1.23s0,0,.06,0l-.05,0Z" fill="#e9e9e9"/><path d="M35.2.44h0l0-.06Z" fill="#e9e9e9"/><path d="M36.46.42s0,.13-.05.19,0-.08.07-.09A.44.44,0,0,0,36.46.42Z" fill="#e9e9e9"/><path d="M38.47.66h0Z" fill="#e9e9e9"/><path d="M34.29.41a.07.07,0,0,0,0,0A.07.07,0,0,0,34.29.41Z" fill="#e9e9e9"/><path d="M1.89,1.47v0S1.88,1.47,1.89,1.47Z" fill="#e9e9e9"/><polygon points="0.43 0.77 0.45 0.77 0.45 0.69 0.43 0.77" fill="#e9e9e9"/><path d="M28,.12h0S28,.11,28,.12Z" fill="#e9e9e9"/><path d="M20.27.23c.12.12-.2.16,0,.3C20.24.47,20.42.31,20.27.23Z" fill="#e9e9e9"/><path d="M38.72,1.22h0Z" fill="#e9e9e9"/><polygon points="20.25 0.53 20.25 0.53 20.27 0.54 20.25 0.53" fill="#e9e9e9"/><path d="M25.31.21a.09.09,0,0,0,0,.06S25.33.24,25.31.21Z" fill="#e9e9e9"/><path d="M27.31.41l0,0Z" fill="#e9e9e9"/><path d="M25.13,1.21s0,0,.07,0h0A0,0,0,0,1,25.13,1.21Z" fill="#e9e9e9"/><polygon points="26.18 0.41 26.19 0.42 26.19 0.43 26.2 0.43 26.2 0.43 26.2 0.43 26.2 1.18 26.2 1.18 26.2 1.18 26.16 1.19 26.2 1.2 26.2 0.41 26.18 0.41" fill="#e9e9e9"/><path d="M5.19,1.4a.29.29,0,0,1-.05-.13C5.16,1.37,5,1.41,5.19,1.4Z" fill="#e9e9e9"/><path d="M38.75,1.16a.06.06,0,0,1,0,.06h0A.07.07,0,0,0,38.75,1.16Z" fill="#e9e9e9"/><path d="M25.17.1l.18,0Z" fill="#e9e9e9"/><path d="M13,1.38l0,0A0,0,0,0,0,13,1.38Z" fill="#e9e9e9"/><path d="M25.86.1a.24.24,0,0,0,.1.1s0,0,0,0Z" fill="#e9e9e9"/><path d="M5.14,1.27Z" fill="#e9e9e9"/><path d="M4,1.61c.17,0,.08-.18.12-.29s.09.14.15.23.22-.22.31-.21,0,0,0,.08c.13-.15.39,0,.54-.19a.08.08,0,0,1,0,0,.55.55,0,0,1,0-.25c.07,0,.13-.12.16,0s0,.05-.07.09l.08-.06c.07.18-.11.06-.11.19.15-.05.33-.2.44-.15s-.27.06-.11.21l-.18-.07c.13.27-.11,0,0,.27.24.05.27-.08.5,0,0-.1,0-.14,0-.24.33-.17.26.43.5.2.07-.11.09-.33.26-.21l0,.19c.22,0,.13-.28.36-.15,0,.08-.18.07-.14.09s.11-.11.23-.11l0,.17c.24,0,.51-.15.78-.18,0,.05-.06.1,0,.16a2,2,0,0,1,1.05.12L9,1.36s.05.07,0,.1c.13.05,0-.1.07-.15s.1.08.05.12c.22-.12.64-.26.87-.11l0,.05c.18.06.21-.3.38-.17l0,0c.4.06.84-.07,1.15.15.06-.21.39.09.42-.2.23.14.16.2.48.3.09,0,.13-.19.23-.22v.15l.14-.16.08.19.1,0a.12.12,0,0,1-.08-.12.33.33,0,0,1,.38.19l.37-.13c0,.06-.07.08-.12.12.2-.15,0,.17.22,0,0,0,0-.09,0-.12a.53.53,0,0,0,.45,0l0,.11c.27,0,.57-.05.88-.05-.11-.05-.09-.23,0-.25l0,.16c.06-.1-.1-.06,0-.18s.08.18,0,.24l.14-.06c0,.05,0,.07,0,.13.06-.1.24.17.32,0v.05c.31,0,.44-.05.69-.06,0-.14.11-.11.18-.22a2.27,2.27,0,0,0,.61.14c.15-.07,0-.12.11-.2,0,.12.23.11.12.2a2.07,2.07,0,0,0,.67-.13c0-.05-.08-.07,0-.11s.13.05.12.11h0c.37-.19.87.38,1.16.11h0l.31-.14c.14,0-.09.1,0,.18.33-.21.53,0,.8-.11.21.38.76,0,1.05.21l0-.09c.07-.08.09.06.14.08s-.08-.08,0-.13a6.9,6.9,0,0,1,1.95.21c.23,0,.13-.46.43-.25l-.09.17c.48-.2,1,0,1.45-.17,0,0,0,.09-.08.09.1.12.37,0,.37-.09s0,.09.06.14.25-.16.3,0,0,0-.05.05.3,0,.24-.12a.39.39,0,0,0,.24,0V.21A.33.33,0,0,1,26,.2c-.1.15-.3-.07-.33.14,0-.22-.31-.18-.42-.07,0-.07-.1-.07-.05-.17-.13,0-.25,0-.22.16A.22.22,0,0,0,24.7.19V1.43c.14,0,.27-.17.36.05a6.71,6.71,0,0,1,1.06-.25c0,.22-.37,0-.36.26.32-.1.51-.29.83-.24.08,0-.05.1-.08.14.32-.09.62,0,.91-.1a.22.22,0,0,1-.07.06c.06,0,.14,0,.13-.07l-.06,0c-.09-.15.23-.31.24-.39-.1.29.28.07.13.44a.14.14,0,0,0,.07-.13c.06,0,.07.06,0,.13.2-.05.13-.16.31-.16,0,.05,0,.07-.06.13.1-.1.19-.19.34-.15,0,0,0,.07,0,.07.26,0,.45-.26.74-.17-.09.22.1.07.11.26l.16-.06-.07-.09c.14,0,.26-.13.38-.07l-.1.08.25,0-.14-.07c.14-.09,0-.23.17-.18,0,0,.13,0,.2.11h0c.07-.06.14-.12.24-.08s0,.21,0,.25c.06-.16.32,0,.4-.21a.24.24,0,0,0,0,.16L30.82,1c.06,0,.07.06.06.14.19,0-.06-.24.17-.14,0,0,0,0-.05.05.23.06.44-.08.65,0s-.19,0-.12.2c.3,0,.63-.23.92-.18l-.06,0c0-.27.22.13.37,0,0,0,0,.15,0,.12A1.64,1.64,0,0,0,33.43,1l0,.07a2.13,2.13,0,0,0,.44.07c0-.07.11-.06.06-.16.4.39.75-.21,1.1.12,0,0-.1.06-.07.06l.3-.07c0-.11,0-.07-.1-.16a.25.25,0,0,1,.19-.12c-.13.08,0,.19.06.25s0-.07,0-.11c.16.21,0-.23.24-.09V.94c.08,0,.15-.11.24-.1s-.09.07-.09.18S36,.76,36.09.9c-.05,0-.12,0-.17.07.11.16.13.12.22.14h0l.2.07,0,0c.15-.35.3-.06.5-.29-.19.21,0,.12,0,.27s.13.09.1.13c.1-.12.16.1.3-.08,0,.05.1,0,.08.13.12,0,0-.09,0-.15.19-.16.45.21.72,0s.28-.26.5-.34-.06.17-.06.17a.29.29,0,0,0,.32,0s0,.08,0,.13.06-.18.18-.11a.72.72,0,0,1-.09.2c.1,0,.21-.14.32-.18s-.07.13-.11.19c.13,0,.33-.08.36-.22l-.08,0c.05,0,0,.11,0,.14S39.14,1,39.13,1l.08,0c-.08-.29-.31,0-.47,0l.07-.21-.17.17s0-.17,0-.2c-.11-.1-.1.08-.19,0s0,0,0,0l-.11.07s0-.15,0-.12c-.2-.12-.32.16-.4,0h0c-.28.07,0,.15-.23.33L37.66.55l0,.15s-.09,0-.07-.07c-.11.1,0,.06-.05.16-.14-.14-.38.07-.41-.18-.05.12.13.09,0,.17,0-.26-.17,0-.3-.07,0-.14.16-.07,0-.19-.08.23-.25-.05-.35,0s-.23.07-.41.13c0-.06-.33-.1-.5-.16v0c0,.18-.21.15-.33.18a.24.24,0,0,1,.09-.2h-.11a.2.2,0,0,1-.14.11l0-.13c-.16,0-.31.16-.51.07,0,.12.16.35-.06.44,0-.07,0-.19,0-.22s-.06.06-.1,0l.09-.12c-.09-.05,0,.1-.12.09S34.4.64,34.41.56s.07,0,.1,0a.27.27,0,0,1-.22-.15c0,.06,0,.14-.06.15s0-.12-.14-.17S34,.39,34,.53,33.9.46,33.88.42s-.38,0-.29.18h0c-.26.14-.54-.09-.8,0v0c-.16,0-.35,0-.46.14S32.23.6,32.25.54s-.13.09-.3,0c.11-.09-.05-.08.12-.06-.16,0-.19-.13-.36,0,.06-.13-.11-.16-.19-.12l.11.09a.6.6,0,0,1-.23,0l0-.16c-.31-.2-.57.34-.81,0-.08.12.17.09.1.22-.15,0-.3-.26-.34-.26-.2-.09-.19.24-.4.18a.19.19,0,0,1-.1.27c-.15,0-.18-.25-.09-.29a0,0,0,0,1,.05,0s.11,0,0-.11l0,.06c-.07-.06-.27-.06-.22-.15-.11,0-.05.09,0,.13-.19-.09-.29,0-.48-.06,0,0,.06.1,0,.1-.29-.08-.13.11-.32.14s0-.22-.15-.14,0-.16,0-.21c-.18.11-.33-.08-.43-.1l.09,0a.36.36,0,0,1-.14,0l.05.12c-.05,0-.1,0-.1-.07s0,.2-.07.3C28.12.38,28,.51,28,.35c.23.06,0-.16.17-.18a.17.17,0,0,1-.14,0s0,0,0-.05c-.22-.14-.1.18-.32.18,0-.09-.06-.17-.09-.15s0,.15,0,.21-.16.06-.24,0l.09,0c0,.09-.1.08-.2.11s.09-.05.05-.08c-.11.15-.25-.16-.4-.06-.08-.06,0-.17-.08-.21-.17.12-.18-.12-.37,0,.05.12.06.09-.07.2L26.64.3l-.2.17c.09,0,.2-.07.25,0s-.08.07,0,.17c-.12-.18-.25.1-.39,0V.27c-.21-.13-.38.15-.66.08l.09.05c0,.12-.18,0-.27.07,0-.1-.05-.14-.08-.2s-.21,0-.24.19L25,.33c-.14,0-.2.07-.28.16v.64A.21.21,0,0,1,24.9,1c-.07.11,0,.18-.12.25.08,0,.14,0,.14-.05s.21-.13.27,0,0-.15.13-.14a.2.2,0,0,1,0,.05c0-.05.13-.07.06-.18.23.31.63,0,.82.24h0V.44h-.13l-.13,0-.24,0s0,0,0,0c-.2-.09-.12.28-.35.18s.12-.09.05-.15c0-.32-.27.05-.43-.14l0,0c-.12-.11-.28.12-.48.1a.2.2,0,0,0,0,0A1,1,0,0,1,24,.66c0-.13.08-.07,0-.2s0,.21-.14.24-.17-.13-.18-.27h.15c-.08-.18-.2,0-.28,0V.32c-.24,0-.24.23-.5.21l0,.06c-.14.2-.12-.11-.26,0l0-.2a2.4,2.4,0,0,1-.48.23c.09-.15.28-.22.4-.31-.09,0-.31,0-.36.11s.09-.07.12,0a.47.47,0,0,1-.44.23c0-.38-.47-.09-.6-.39-.32.14-.64-.06-1,0,.13.3-.11,0-.09.31-.09,0-.12,0-.13,0L20,.35c-.06-.09.08-.07.07-.14-.19,0-.08-.13-.2-.21,0,.11-.07.16-.18.11l.16.15c-.27.16-.24-.26-.5-.1l.08-.1c-.14.06-.51,0-.64.25,0,0-.06-.12,0-.14-.33,0-.73.26-1,.11l0-.08c-.07,0-.11.14-.19.07s0-.08,0-.08-.17.13-.25.09l.07-.09c-.32-.1-.49.21-.76.26,0-.22-.25-.29-.38-.33v0c-.38,0-.64.18-1,.27-.21-.24-.73-.1-1.07-.24.05,0,0,.18-.07.2S14,.47,14,.27h0c-.07-.2-.23-.14-.36-.15l0,.27c-.34-.39-.9.14-1.08-.21-.09.07-.19.07-.27.13V.17a2.16,2.16,0,0,0-.63,0l.06-.1c-.16,0-.2.41-.35.42l0-.21c-.28,0-.56-.19-.83,0,0,0,0-.1.06-.1-.14,0-.51-.15-.46.14,0-.19-.29,0-.44.07l0-.14c-.13.18-.13.22-.31.27s0-.11,0-.07C9.26.36,9.29.57,9.12.5L9.18.41C9,.4,9.05.44,9,.55A.23.23,0,0,1,8.68.39c0,.07-.1.18-.18.14a.1.1,0,0,1,0-.09C8.29.34,8.18.6,8,.46c0,0,0-.07,0-.08a1.25,1.25,0,0,1,.33,0c0-.13-.15-.15,0-.33C8.16.17,8,.38,7.8.32l0,0v0a.1.1,0,0,0-.09,0,.33.33,0,0,0-.13,0c0-.1-.17,0-.25-.06,0,.14-.09.12,0,.23s0,0,.07,0H7.6c-.06.07-.12.13-.2,0L7.29.66C7.18.46,7,.36,7,.24c-.23.08-.55,0-.7.31-.06,0-.07-.07-.1-.11s.09,0,.11-.06c-.14.06-.4,0-.43.21C5.66.5,5.93.42,5.7.45l0-.06C5.27.1,5,.86,4.49.48c0,0,0,0,.06.07C4,.38,3.37.7,2.8.44c-.16,0-.18.06-.28.15l0-.15L2.32.62C2.08.74,1.91.25,1.61.49l0,.1c-.11,0-.35.06-.33-.06s0,.11-.08.06V.51L1,.64C.77.58,1,.33.71.31.6.34.39.54.43.6A.12.12,0,0,1,.55.72l-.1,0c0,.24-.1.48.15.64l.18-.14,0,.11H.68c.09.1.14,0,.2-.06A.2.2,0,0,0,1,1.45l.18-.22c0,.09-.08.18,0,.23.08-.11-.07-.21.06-.27.08.1.06.19.16.1a.1.1,0,0,1,0,.12c.09-.07.23,0,.28-.15.08.13.29,0,.28.18a.49.49,0,0,1,.24-.18c-.15.27.3,0,.26.3.11-.24.39-.11.58-.24,0,0,0,.06-.05.05s.14.09.21.13c0-.19.19-.24.28-.36.13.19-.08.23,0,.41,0-.16.23-.15.18-.29.1.12.09.06.14.22,0-.24.1,0,.18-.19.15.12,0,.23.2.16S4,1.61,4,1.61Zm3.84-.43h0Zm.32,0a.65.65,0,0,0-.14,0c0-.05,0-.1,0-.1S8.11,1.14,8.16,1.18Zm-.68-1s.07,0,.07,0l-.09,0v0A.14.14,0,0,1,7.48.21Z" fill="#e9e9e9"/><path d="M7.39.39h0l0,0v0Z" fill="#e9e9e9"/><path d="M33.59.6h0a0,0,0,0,1,0,0Z" fill="#e9e9e9"/><polygon points="12.61 1.45 12.61 1.42 12.58 1.45 12.61 1.45" fill="#e9e9e9"/><path d="M35.37,1.08a.08.08,0,0,0,0,0S35.38,1.1,35.37,1.08Z" fill="#e9e9e9"/><path d="M36.14,1.11l.1,0Z" fill="#e9e9e9"/><path d="M36.72,1.18s0,0,0-.06h0Z" fill="#e9e9e9"/><path d="M27.35,1.35h0S27.31,1.37,27.35,1.35Z" fill="#e9e9e9"/><path d="M30.14,1l-.09.07C30.1,1.1,30.14,1.1,30.14,1Z" fill="#e9e9e9"/><polygon points="25.16 0.1 25.16 0.1 25.18 0.1 25.16 0.1" fill="#e9e9e9"/><path d="M29.92,1.08a.12.12,0,0,0,.13,0A.2.2,0,0,0,29.92,1.08Z" fill="#e9e9e9"/><path d="M39.28,1.25h0v0Z" fill="#e9e9e9"/><path d="M39.31,1.23l0,0S39.31,1.21,39.31,1.23Z" fill="#e9e9e9"/><path d="M39.41,1.18l-.07,0S39.39,1.22,39.41,1.18Z" fill="#e9e9e9"/><path d="M38.5,1.18v.05A.2.2,0,0,0,38.5,1.18Z" fill="#e9e9e9"/><path d="M38.26,1.2c.06,0,.14.11.22.07v0C38.45,1.31,38.32,1.11,38.26,1.2Z" fill="#e9e9e9"/><path d="M37.27.57l.2,0c0-.06-.08-.13,0-.14C37.23.31,37.53.59,37.27.57Z" fill="#e9e9e9"/><path d="M36.66.49c.1,0,0-.08,0-.11S36.58.44,36.66.49Z" fill="#e9e9e9"/><path d="M32.2.49l0-.13C32.13.38,32.21.41,32.2.49Z" fill="#e9e9e9"/><polygon points="31.35 1.15 31.43 1.23 31.47 1.11 31.35 1.15" fill="#e9e9e9"/><polygon points="30.85 0.24 30.89 0.22 30.75 0.27 30.85 0.24" fill="#e9e9e9"/><path d="M26,1.33l0-.15C25.94,1.21,25.93,1.38,26,1.33Z" fill="#e9e9e9"/><path d="M23.14.44c0-.08-.12-.13-.18,0S23.11.46,23.14.44Z" fill="#e9e9e9"/><polygon points="13.46 0.19 13.53 0.13 13.41 0.18 13.46 0.19" fill="#e9e9e9"/></g></g></svg>