<svg xmlns="http://www.w3.org/2000/svg" viewBox="0 0 456.37 224.66"><title>Asset 1</title><g id="Layer_2" data-name="Layer 2"><g id="Layer_1-2" data-name="Layer 1"><path d="M437.23,201.56c-22.57.34-45.16.06-67.74.07q-75,0-149.9,0-73,0-146.07,0c-17.35,0-34.69.06-52,0-6.53,0-13.06.06-19.59-.07l3.68,3c2.95-2.18,5.25-5.65,7.08-8.78a29.56,29.56,0,0,0,2.45-6.36c2.55-8.31,2.94-17.31,3.47-25.92.77-12.63,1-25.3,1.12-37.95.54-40.71.28-81.43.48-122.15l-3.91,4.3c3.73,4.93,9.54,7.5,15.26,9.33s11.93,2.4,17.94,2.87c9.14.7,18.33,1,27.49,1.16,23,.46,46.1.46,69.15.51q40.82.09,81.62.08l152.12,0c17.89,0,35.78-.07,53.67,0,7.29,0,14.58-.06,21.86.07l-4.92-3.63c-2.76,2.56-4.63,6.2-6.15,9.6a54.89,54.89,0,0,0-3.62,13,226,226,0,0,0-2.51,28.94c-.49,13.23-.66,26.47-.78,39.71-.34,37-.19,73.9-.35,110.85,0,.82,1.19-.74,1.11-.64.52-.64,1.86-2,1.86-2.88.23-25.52.08-51,.15-76.54.06-20,.09-40,.36-60.07.12-8.71.36-17.4.78-26.1.22-4.48.49-8.88,1-13.33a34.08,34.08,0,0,1,1.06-6.88q.56-2.67,1.35-5.29L444,30.66a15.06,15.06,0,0,1,5.79-7.11,13.89,13.89,0,0,1,5.6-1.78c.84-.17-.9-1.28-.94-1.3-.78-.58-1.58-1.13-2.4-1.66a3.83,3.83,0,0,0-1.35-.72c-5.6-.52-11.35-.21-17-.25-13.27-.11-26.55.11-39.82.08q-65.42-.15-130.84-.11-71.67,0-143.35,0c-17.93,0-35.9.26-53.82-.25-7.68-.22-15.38-.42-23.06-.83a71.77,71.77,0,0,1-19.1-3.39L27,14.7a13.41,13.41,0,0,1-5.4-5.77,19.2,19.2,0,0,1-1.46-5.72c0-.24-1.64,1.35-1.77,1.5-.46.51-.91,1-1.34,1.58a3.86,3.86,0,0,0-.8,1.21c-.09,8-.33,16-.18,24,.34,18.75.06,37.52,0,56.28-.05,20-.07,39.92-.3,59.88-.11,9.41-.46,18.8-.89,28.2-.15,3.41-.5,6.78-.88,10.17a74.27,74.27,0,0,1-1.89,9.57l1.25-2.76A27.05,27.05,0,0,1,9.43,198a12.93,12.93,0,0,1-7.54,3.56c-.73.17.52,1.06.61,1.14.67.56,1.92,1.86,2.86,1.93,5.6.42,11.3.16,16.91.2,7.88,0,15.75-.13,23.63-.1l27,.05q74.84.1,149.68.06,73.14,0,146.29-.06c23.65,0,47.31.09,71,.05.72,0-.28-1.08-.34-1.15C439.11,203.27,437.92,201.55,437.23,201.56Z" opacity="0.11"/><path d="M435.36,203l-3.81.61c-4.21.7-8.65.07-12.91.1-16.82.15-33.64,0-50.46,0H218.34q-109,0-218,0l.5,1c1.66-.76,3.43-1.5,5-2.42a39.27,39.27,0,0,0,7.29-5.81c2.37-2.29,1.12-.86,1.65-1.72A44.07,44.07,0,0,0,16,189c.35-2.28.76-4.54,1.23-6.8,1.64-9.78,1.92-19.75,2.3-29.64.41-10.91.54-21.83.67-32.73.44-38.23.32-76.47.39-114.7l-1.27.46A36.58,36.58,0,0,0,21,10.33a45.93,45.93,0,0,0,4.2,6.82c1.31,1.9.61,1.21,1.54,1.83a12.47,12.47,0,0,0,2.07.75,25.47,25.47,0,0,0,3.63,1.14C44.88,24.25,58.14,24.39,71,24.79c22.25.68,44.53.65,66.78.72q42.83.12,85.63.1,116.43,0,232.85,0L454,22.76a52.49,52.49,0,0,0-8.8,6.9c-3.71,3.59-2.77,2.45-4,8.19-.65,3.09-1.26,6.19-1.79,9.31-1.67,9.86-1.89,20-2.27,30-.52,13.39-.64,26.8-.76,40.2-.33,35.7-.25,71.41-.32,107.11,0,.67.9-.32.89-.31.4-.42,1.21-1.31,1.21-1.94,0-29.34,0-58.68.13-88,.09-20.85.1-41.72.79-62.55.29-8.7.51-17.44,1.78-26.06l.74-4.63q.41-7.71,6.25-11.45a8.57,8.57,0,0,1,3.94-2.68,10.62,10.62,0,0,1,4.44-1.17c.78-.15-1.43-2.91-2.06-2.91H260.88q-71.25,0-142.5-.1c-18.54-.05-37.08,0-55.61-.53-12.08-.36-24.27-.56-36-3.85l1.06.49a45.41,45.41,0,0,1-5-7,22.92,22.92,0,0,1-2.31-6.55c-.15-.72-1.27,0-1.27.46,0,29.33,0,58.67-.14,88-.09,20.79-.09,41.6-.87,62.37-.33,8.78-.55,17.62-2,26.3l-.83,4.66A10.28,10.28,0,0,1,13,194.25a8.19,8.19,0,0,1-3.36,4.41,23.65,23.65,0,0,1-9.27,5.1c-.72.17-.15,1,.36,1H364.82c17.32,0,34.65.18,52,0,2.67,0,5.34-.11,8,0,2,.1,4.14.46,6.09,0l4.57-1C435.94,203.74,435.87,203,435.36,203Z" opacity="0.11"/><path d="M437.88,202.26c-72.6-.47-145.21-.09-217.81-.09q-73,0-146.08,0c-23.92,0-47.84.1-71.76,0l11.16,9.8L11.8,198.2l.09,9.07c.94-10.51,2.82-20.89,3.84-31.38.7-7.19,1.09-14.42,1.38-21.63.89-22.17.86-44.4,1-66.58.13-28.07,0-56.15.18-84.22L9.08,15.31l14.72-.87-8.74-.81c9.59,1.26,19.22,2.95,28.88,3.72,8,.63,16,.9,24,1.16,17.94.59,35.92.52,53.87.59,47.78.17,95.57.12,143.35.13q65.49,0,131,.05c19.06,0,38.13-.15,57.2,0l-10.82-7.82,2.46,8.57-1.59-6.41.58,8.12-.15-6.12c-.81,10-2.34,19.92-3.24,29.91-.84,9.37-1.3,18.8-1.55,28.21-.57,21.18-.63,42.37-.72,63.55-.11,26.81,0,53.61-.16,80.42a2.07,2.07,0,0,0,1.13-.83q1.78-1.87,3.48-3.82c1.15-1.29,2.28-2.59,3.37-3.93a2,2,0,0,0,.68-1.22c.23-8,.62-16,.32-23.92-.34-9.19-.24-18.35-.19-27.54q.08-16.31.09-32.6c0-21.17-.24-42.36,0-63.52.05-4.28.36-8.53.47-12.8.11-4,0-8,0-12-.05-2.65-.1-5.3-.13-7.95,0-.86,0-1.71,0-2.56a5.8,5.8,0,0,0-.66-2.61Q445.77,19.2,445,16l-1.74,11A9,9,0,0,1,448,21a19.57,19.57,0,0,1,5.27-1.65,2.17,2.17,0,0,0-1-1.07q-2.08-1.62-4.23-3.15t-4.33-3a2.12,2.12,0,0,0-1.3-.58,33.63,33.63,0,0,0-4.15-.29c-4.29,0-8.58-.12-12.87-.18l-9.27,0-11.43.41c-8.75.13-17.52-.13-26.27-.17Q311.7,10.9,244.93,11q-71.07,0-142.14.11l-31.62.09c-8.81,0-17.6-.42-26.4-.4-6.92,0-13.84,0-20.75,0a25.12,25.12,0,0,0-4.67,0c-2.39.72-4.8,1.39-7.21,2l11.7,1.33a7.06,7.06,0,0,1-4.45-4.93,31.45,31.45,0,0,1-1.14-5.7,2.61,2.61,0,0,0-1.2,1.06C15.79,6,14.57,7.58,13.37,9.15S11,12.28,9.81,13.88a2.63,2.63,0,0,0-.73,1.43c-.22,8-.62,16-.32,24C9.11,48.45,9,57.6,9,66.78q-.08,16.31-.09,32.61c0,21.16.23,42.32,0,63.47-.05,4.29-.33,8.56-.44,12.84-.09,4,0,8,0,12,0,2.6,0,5.19,0,7.79,0,.84,0,1.67,0,2.51.31,2.89,1.38,6.07,2,8.9l2.41-13q-1.68,5.7-6.49,7.13a15.86,15.86,0,0,1-4.19,1.14,2.6,2.6,0,0,0,1,1.25c1.42,1.34,2.88,2.65,4.35,3.93s3,2.58,4.46,3.82a2.51,2.51,0,0,0,1.37.8,29.41,29.41,0,0,0,4.09.32c4.28,0,8.56.12,12.84.18,3.08,0,6.17.08,9.26.06,4.85,0,9.67-.45,14.52-.41q13.47.12,26.93.17,74.79.33,149.6.2c48.8,0,97.59,0,146.39-.23,4.88,0,9.77-.11,14.65-.09,4.26,0,8.5.33,12.75.43,8.17.19,16.37-.21,24.54-.3,2.65,0,5.3-.15,7.94.06,1.84.15,3.69.31,5.53.44l5.3.37a2.51,2.51,0,0,0-.81-1.34q-1.87-2.21-3.84-4.35c-1.29-1.44-2.6-2.85-3.95-4.24A2.46,2.46,0,0,0,437.88,202.26Z" opacity="0.11"/><path d="M437.1,203.34c-72.58-.49-145.18-.08-217.76-.08q-73,0-146.07,0c-23.9,0-47.81.26-71.71,0l8.77,6.08a16,16,0,0,0,.32-2.28c.62-5.22,1.73-10.36,2.69-15.53a216.69,216.69,0,0,0,3-26c1.24-20.35,1.22-40.78,1.36-61.16.22-33.14,0-66.29.27-99.43l-6.11,7.61a6,6,0,0,0,1.2.29c3.49.62,7,1.66,10.42,2.62a113.83,113.83,0,0,0,15.92,3.38c7.41.94,14.93,1.14,22.38,1.45,9.23.39,18.47.56,27.71.66,50.37.57,100.76.35,151.13.36q72.42,0,144.83.05c22.66,0,45.33-.24,68,0l-8.39-7a10.29,10.29,0,0,0-.27,2.22,31.51,31.51,0,0,1-1.07,6.44,94.22,94.22,0,0,1-2.1,10.26,175.75,175.75,0,0,0-2.89,23.19c-1.47,22.6-1.49,45.27-1.62,67.91-.19,31.87,0,63.74-.25,95.61a1.63,1.63,0,0,0,1-.76q1.5-1.74,2.92-3.54t2.78-3.64a1.65,1.65,0,0,0,.53-1.13c.19-8,.59-16,.31-23.93-.67-18.75-.14-37.57-.1-56.33,0-20,0-40.07.11-60.11,0-9.49.51-18.95.69-28.44.06-3.46.29-6.91.52-10.37.24-3.66-.05-7.33-.15-11l-2.53,8.88q1.65-5.58,6.36-7.09a13.65,13.65,0,0,1,4.16-1.17,1.51,1.51,0,0,0-.69-1q-1.59-1.45-3.26-2.83c-1-.87-2.93-3-4.44-3.21a26.9,26.9,0,0,0-4-.3c-4.28,0-8.57-.1-12.85-.16l-9.23-.07-11.52.4c-6.39.09-12.78-.1-19.17-.13-45.22-.23-90.44-.21-135.66-.22q-71.4,0-142.78.06l-28.33,0H66.81q-6.42,0-12.82-.46c-7.29-.24-14.62.09-21.91-.35q-4.26-.39-8.51-.84c-2.39.08-4.79.12-7.18.1l7.87,2.8A9.24,9.24,0,0,1,18.9,8.89a18.66,18.66,0,0,1-1-4.05,1.26,1.26,0,0,0-.87.61c-.86,1-1.68,2-2.48,3-.69.86-2.73,2.75-2.76,4-.16,7.06-.46,14.13-.39,21.18,0,3.79.34,7.57.38,11.35.06,4.09-.06,8.19-.08,12.29q-.09,15.84-.11,31.7c-.05,20.08-.06,40.17-.14,60.26,0,10.65-.51,21.27-.78,31.91-.08,3.54-.33,7.06-.59,10.59-.27,3.68,0,7.36.1,11l1.84-7.65q-1.61,5.5-6.25,6.95a13,13,0,0,1-4.25,1.12,1.45,1.45,0,0,0,.75.88c.79.61,1.59,1.19,2.41,1.75,1,.72,2,1.43,3.06,2.11A11.31,11.31,0,0,0,10,209.25c5.06.65,10.24.32,15.33.41,6.57.12,13.11.05,19.68-.17,8.55-.29,17.14,0,25.69,0,50.65.22,101.29.2,151.93.2q75.64,0,151.3-.19c4.88,0,9.76-.08,14.63-.07,4.29,0,8.55.26,12.84.36,7.39.15,14.82-.12,22.21-.22,3.41,0,6.85-.23,10.26,0l5.63.36,5.29.33a1.39,1.39,0,0,0-.61-1c-1-1-2-1.89-3-2.8s-2-1.81-3.09-2.68A1.39,1.39,0,0,0,437.1,203.34Z" opacity="0.11"/><path d="M436.92,200.1c-22.54.54-45.12.13-67.67.14q-75,0-149.91,0-73,0-146.06,0c-23.91,0-47.83.2-71.74,0l3.17,3a31.39,31.39,0,0,0,7.38-7.61A10.75,10.75,0,0,0,13.68,193a53.9,53.9,0,0,0,2.71-9.09c1.87-9.18,2.36-18.6,2.84-27.94.68-13.06.75-26.17.89-39.25.41-38.21.21-76.42.39-114.63L17.05,6.29a31.94,31.94,0,0,0,6.8,6.38,33.05,33.05,0,0,0,7.56,3.55,46.74,46.74,0,0,0,10.87,2.34c8.38,1.07,16.85,1.35,25.28,1.67,21.86.83,43.76.71,65.63.79q42.59.14,85.17.1l158.15,0c26.5,0,53-.12,79.5,0l-3.33-2.4a47.24,47.24,0,0,0-3.9,3.44,36.55,36.55,0,0,0-5.65,6.52c-1.15,1.86-1.45,5-2,7.27a107.36,107.36,0,0,0-2.08,12.08c-1.2,10.45-1.45,21.07-1.72,31.58-.31,12.34-.46,24.68-.55,37-.26,34.43-.21,68.85-.27,103.27,0,.64,2.16-1.18,2.16-1.83q0-38.34.09-76.68c.05-20,.1-40,.44-59.93.17-9.64.39-19.27,1-28.88.28-4.43.7-8.72,1.34-13.1a17.47,17.47,0,0,1,2.24-7.26q1.77-9.21,12.22-11.1c.71-.16-.5-1-.55-1-.63-.46-1.75-1.46-2.59-1.47-21.41-.37-42.84,0-64.26,0q-66.8-.09-133.59-.06c-47.33,0-94.66,0-142-.11-19.15-.06-38.3-.12-57.45-.8q-5.48-.12-10.93-.57-4.44-.26-8.83-.88Q25.76,15.4,21.94,7.79a18,18,0,0,1-1.43-5.73c-.13-.8-1.21.71-1.24.75-.55.68-1.08,1.36-1.59,2.07A3.34,3.34,0,0,0,17,6.06c-.26,25.5-.09,51-.16,76.51-.05,20-.07,40-.31,60-.11,8.67-.35,17.31-.74,26S14.67,185.64,12.53,194l1-2.64A12.92,12.92,0,0,1,7.9,197a8.68,8.68,0,0,1-6.36,3.21c-.68.15.34,1,.47,1.11.51.5,1.7,1.89,2.5,1.92,5.72.18,11.45.08,17.17.11,16.88.1,33.76-.06,50.63,0q74.84.09,149.67.06,73.16,0,146.3-.06c17.32,0,34.64.18,52,0,6.29-.06,12.57,0,18.86-.1C439.77,203.21,437.64,200.08,436.92,200.1Z" opacity="0.11"/><path d="M437.3,201.06c-22.65-.19-45.3-.14-68-.12q-74.94.06-149.89,0-73,0-146.08,0c-23.92,0-47.84.1-71.76,0l10.29,9.5-.1-.6,0,.36a86.31,86.31,0,0,1-.29-11.6l-.11,6.57c1.07-9.26,2.91-18.4,4-27.64,1-8.09,1.36-16.28,1.68-24.41.88-22.16.86-44.37,1-66.55.13-28.07,0-56.15.18-84.22L10.41,13.51a124.13,124.13,0,0,1,12.79.33l-7.89-.57q7.63.73,15.22,1.79,4.24.82,8.52,1.31c7.32.83,14.7,1,22.06,1.3,17.34.66,34.7.7,52.05.78,49,.24,97.94.16,146.91.17q66.17,0,132.33.05c20.25,0,40.5-.23,60.74,0l-8.81-5.85c-.42,5.88-1.56,11.66-2.35,17.5-1.06,7.79-1.94,15.57-2.44,23.42C438.11,76.32,438.09,99,438,121.53c-.18,31.87,0,63.74-.24,95.61a1.46,1.46,0,0,0,1-.6c1-1,2-2,3-3s2-2,2.9-3.09a1.44,1.44,0,0,0,.57-1c.2-8,.56-15.94.29-23.9-.31-9.19-.21-18.35-.17-27.55q.07-16.29.09-32.59c0-21.13-.18-42.28.11-63.42.06-4.24.36-8.47.5-12.71.14-4,.1-8,.16-11.93q.06-3.84.16-7.66a13.15,13.15,0,0,0,.06-2.66c-.24-2.86-1.05-6-1.51-8.78l-1.83,8.41c1.05-2.15,1.91-4.07,3.89-5.52a16.44,16.44,0,0,1,6.2-2.46,1.42,1.42,0,0,0-.76-.87c-.79-.58-1.6-1.14-2.42-1.68-1-.7-2-1.38-3.08-2a11.87,11.87,0,0,0-2.22-1.26c-4.46-.5-9-.26-13.46-.34-6.23-.11-12.44-.15-18.67.05-8.37.26-16.73.11-25.1.07q-65.42-.3-130.82-.21-71.71,0-143.44.05l-32.6,0H66.23q-6.51,0-13-.41c-7.48-.2-15-.06-22.44-.34-3-.13-5.93-.28-8.9-.46-2.43.53-4.86,1-7.31,1.45l9.45.68a7.53,7.53,0,0,1-4.65-5.1,26.37,26.37,0,0,1-1.09-6,2.16,2.16,0,0,0-1.07,1C16.11,4.77,15.06,6.23,14,7.71s-2.06,3-3,4.46a2.17,2.17,0,0,0-.58,1.34c-.17,7.09-.47,14.2-.39,21.3.07,5.76.38,11.46.34,17.22q-.09,13.5-.12,27-.08,26.46-.07,52.9c0,9.68.07,19.37,0,29q0,6.42-.43,12.84c0,4-.07,7.91-.11,11.87v-.38l-.18,5.36a23.39,23.39,0,0,0-.19,5.08c.24,2.85.79,5.77,1.13,8.61l2.08-11.46a9.38,9.38,0,0,1-5.11,6.48,18.61,18.61,0,0,1-5.72,1.55,2.29,2.29,0,0,0,.87,1.21q2,2,4,3.82c1.34,1.26,2.72,2.49,4.11,3.7a2.37,2.37,0,0,0,1.29.77,27.71,27.71,0,0,0,4.08.31c4.29,0,8.57.11,12.86.16,3.07,0,6.16.09,9.24.07,4.84,0,9.67-.42,14.51-.38q13.47.12,26.94.16,74.81.28,149.61.18c48.79,0,97.58,0,146.38-.21,4.88,0,9.77-.1,14.65-.08,4.26,0,8.5.29,12.76.39,8.17.18,16.37-.16,24.53-.28,2.66,0,5.32-.16,8,0l5.56.39,5.3.36a2.19,2.19,0,0,0-.71-1.29c-1.14-1.42-2.3-2.82-3.5-4.19s-2.38-2.75-3.61-4.09A2.25,2.25,0,0,0,437.3,201.06Z" opacity="0.11"/><path d="M437.56,204.6q-111.15,0-222.31,0-72.42,0-144.83,0c-16.11,0-32.22.08-48.33,0-6.54,0-13.09,0-19.62-.09l7.35,4.72a10.87,10.87,0,0,0,.53-2.27c.92-4.79,2.29-9.48,3.28-14.26a180.49,180.49,0,0,0,3-26c1.22-20.33,1.22-40.72,1.36-61.08.21-33.13,0-66.27.27-99.4l-6,6.39a1.86,1.86,0,0,0,1.13.39c2.41.48,4.81,1.08,7.17,1.79l-4.49-1.34a112.76,112.76,0,0,0,11.8,4.36q3.81,1,7.66,1.71a135.9,135.9,0,0,0,15,1.67c18.4,1.25,36.87,1.29,55.3,1.42,48.43.35,96.87.24,145.3.25q69.32,0,138.64,0c21.44,0,42.88-.18,64.31,0L445,14.46a11.45,11.45,0,0,0-.21,2.34,41.09,41.09,0,0,1-1.38,8.91q-.6,4.54-1.51,9a177.33,177.33,0,0,0-2.91,23c-1.46,22.66-1.48,45.41-1.61,68.11-.2,31.87-.06,63.75-.24,95.63a1.85,1.85,0,0,0,1-.9c1-1.31,1.92-2.63,2.83-4s1.83-2.69,2.69-4.06a1.85,1.85,0,0,0,.49-1.24c.13-5.52.3-11,.35-16.57.05-5.34-.27-10.62-.34-16-.1-7.46.1-14.93.13-22.39q.09-24.12.11-48.22c0-17-.11-33.91.25-50.85l0,.35c.34-6,.32-11.93.58-17.9q.3-5,.68-10.08-.21-4.26-.28-8.54l-2.33,10a10,10,0,0,1,5.2-6.62,17.12,17.12,0,0,1,5.69-1.62,1.87,1.87,0,0,0-.76-1.1c-1.16-1.15-2.34-2.27-3.56-3.37s-2.42-2.2-3.66-3.26a1.89,1.89,0,0,0-1.16-.66,26.67,26.67,0,0,0-4-.32c-4.28,0-8.56-.09-12.84-.16l-9.22-.07-11.56.41c-8.73.12-17.49-.13-26.23-.16q-66.75-.3-133.5-.2-71.06,0-142.11.08L74,14.08Q67,14.16,60,14a115.08,115.08,0,0,0-12.18-.38c-6.82,0-13.66,0-20.46-.62-3.6-.33-7.09-.36-10.71-.45l8.18,3.84A9.88,9.88,0,0,1,19.33,10a19.86,19.86,0,0,1-1-3.88c-.07-.28-3.38,3-3.29,2.94-.64.67-2.72,2.32-2.75,3.45-.18,8-.54,15.92-.28,23.86.29,9.2.2,18.37.16,27.57Q12,80.26,12,96.54c0,21.09.13,42.21-.2,63.3-.09,6.14-.5,12.26-.64,18.4-.11,4.49-.36,8.92-.7,13.39-.28,3.66-.18,7.34-.24,11l1.8-5.82q-1.58,5-5.86,6.48a11.9,11.9,0,0,1-4,1.19,1.13,1.13,0,0,0,.65.75c.68.47,1.38.93,2.09,1.36.88.56,1.77,1.11,2.67,1.63a8.62,8.62,0,0,0,1.94,1,39.67,39.67,0,0,0,4.07.24c4.3,0,8.6.07,12.9.12,7.9.1,15.79-.3,23.68-.24q13.48.09,27,.12,74.84.24,149.66.15,73.15,0,146.32-.17c4.88,0,9.75-.07,14.63-.07,4.3,0,8.57.24,12.87.32,8.14.15,16.31-.11,24.45-.22,6.33-.08,12.61.26,18.93.56.33,0,.26,0,.22-.27-.11-.76-1.73-1.64-2.29-2.09-.95-.79-1.91-1.57-2.91-2.3A2.69,2.69,0,0,0,437.56,204.6Z" opacity="0.11"/><path d="M436.22,199.34c-22.66-.46-45.36-.17-68-.16q-74.94,0-149.88,0-73,0-146.08,0c-23.9,0-47.82.25-71.72,0l5.81,5.18c2.63-2.32,4-6.14,5.23-9.33a89.89,89.89,0,0,0,4.23-17.26c1.55-9.78,1.85-19.81,2.2-29.69.47-13.4.59-26.82.7-40.23C19,72.13,18.84,36.44,19,.75L15.2,6.44A32.87,32.87,0,0,0,21.37,11a55.49,55.49,0,0,0,8.11,3.61,27.29,27.29,0,0,0,2.82,1c5.23,1.43,11,1.74,16.35,2.2,9.21.78,18.48,1,27.72,1.21,23,.49,46.1.5,69.14.55q40.82.09,81.62.08,76,0,152.12,0c25.21,0,50.43-.11,75.64,0l-2.63-1.83a58.21,58.21,0,0,0-8.59,7.8A7.47,7.47,0,0,0,442,27.81c-.29.8-.55,1.61-.78,2.42a50.4,50.4,0,0,0-1.65,6.16c-1.79,9.11-2.29,18.43-2.74,27.68-.64,13.06-.72,26.16-.86,39.22-.39,38.2-.22,76.4-.37,114.6,0,.67.94-.2,1-.25.42-.36,1.72-1.32,1.72-2,.15-25.51.06-51,.12-76.51,0-20,.08-40,.34-60,.12-8.67.3-17.33.73-26,.21-4.45.49-8.82,1-13.24a97.76,97.76,0,0,1,2.32-12.26l-.54,1.16a35.22,35.22,0,0,1,4.91-5.37,14,14,0,0,1,7.63-3.71c.71-.16-1.9-1.92-2.46-1.93-19.05-.25-38.11,0-57.16,0q-63-.06-126-.05-69.78,0-139.54-.08c-18.59,0-37.17-.09-55.76-.38-14.31-.23-28.6-.7-42.79-2.63l1.57.4L29,13.59a10.88,10.88,0,0,1-5.72-4.13,5.91,5.91,0,0,1-3.36-4.21A13.27,13.27,0,0,1,19,.75C18.86-.18,17.59,2,17.64,1.9q-.9,1.37-1.74,2.76a5.5,5.5,0,0,0-.75,1.54c-.08,7.11-.27,14.23-.24,21.35,0,7.83.19,15.65.17,23.48Q15,66.9,15,82.76c-.05,20-.08,40.06-.31,60.09-.11,8.73-.39,17.43-.75,26.16A147,147,0,0,1,11.16,194l1-3.32a15,15,0,0,1-5.64,6.85,15.13,15.13,0,0,1-6,1.67,17.47,17.47,0,0,0,2,2.26c.66.62,1.34,1.22,2,1.8a6.48,6.48,0,0,0,1.53,1.12c4.39.51,8.86.24,13.28.29,7.2.08,14.39.09,21.59-.08,8.57-.2,17.15,0,25.71,0q73.5.21,147,.13,74.24,0,148.47-.1c9.72,0,19.47-.27,29.19-.07,5,.1,10,.21,15.06.19,3.57,0,7.14,0,10.7-.06,5.72,0,11.41-.23,17.13.1,2.33.14,4.64.34,7,.56a.88.88,0,0,0-.28-.81c-.6-.83-1.23-1.63-1.89-2.41C438.52,201.54,437.18,199.36,436.22,199.34Z" opacity="0.11"/><path d="M438.36,203.87c-22.62-.2-45.25-.19-67.88-.17q-75,.09-149.9.05-73,0-146.08,0c-23.91,0-47.82.17-71.73,0l10.61,8.24L12,199.64l0,8c1-10.15,2.68-20.23,3.63-30.39.88-9.37,1.33-18.81,1.58-28.23.59-21.17.66-42.36.74-63.55.11-26.81,0-53.61.17-80.42L9,15.44l11.87-1.12-8.58-.27c9.21,1.23,18.36,3.2,27.59,4.26,7.36.84,14.76,1.12,22.15,1.42,17.25.72,34.52.76,51.79.86,49,.27,97.94.17,146.92.18q66.17,0,132.34.05c20.26,0,40.52-.09,60.78,0l-11.45-9.41,1.8,13.31L443.85,16c-.71,10.31-2.42,20.47-3.39,30.73-.89,9.51-1.32,19.08-1.58,28.62-.58,21.17-.65,42.36-.73,63.54-.11,26.81,0,53.62-.16,80.43a2.42,2.42,0,0,0,1.15-1q1.8-2.17,3.51-4.41c1.16-1.48,2.29-3,3.39-4.51a2.39,2.39,0,0,0,.68-1.37c.22-8,.61-16,.31-24-.34-9.18-.23-18.33-.19-27.52q.07-16.31.09-32.61c0-21.16-.23-42.33,0-63.48,0-4.29.33-8.57.43-12.85.1-4,0-8,0-12q0-3.93-.06-7.84c0-.84,0-1.68,0-2.52a6.47,6.47,0,0,0-.61-2.6c-.54-2.09-1-4.18-1.5-6.29l-1.78,12.31a8.85,8.85,0,0,1,4.92-6.21,20.06,20.06,0,0,1,5.53-1.6,2.58,2.58,0,0,0-1-1.21q-2.2-1.93-4.48-3.78c-1.5-1.25-3-2.47-4.57-3.66a2.56,2.56,0,0,0-1.39-.76,29.72,29.72,0,0,0-4.12-.31c-4.28,0-8.56-.12-12.85-.18l-9.26-.06-11.48.43c-6.39.1-12.79-.1-19.17-.14-45.23-.26-90.46-.24-135.68-.25q-71.41,0-142.82.1-14.19,0-28.37.08l-14.69.05q-6.48,0-12.93-.45c-7.5-.19-15,0-22.54,0-3,0-6,0-9,0-2.45.69-4.91,1.34-7.38,2l12.08,2.6a7.65,7.65,0,0,1-4.67-4.87,35.83,35.83,0,0,1-1.34-5.28A2.17,2.17,0,0,0,16.93,6c-1.25,1.32-2.48,2.66-3.67,4s-2.4,2.74-3.55,4.14A2.3,2.3,0,0,0,9,15.44c-.22,8-.62,16-.32,23.91s.26,16.14.22,24.23q-.09,16.07-.11,32.13,0,30.15,0,60.29c0,9.65-.46,19.27-.47,28.92,0,3.66.06,7.33.1,11a10.49,10.49,0,0,0,.67,5c.57,2.13,1.1,4.26,1.61,6.4l2.11-11.44q-1.59,5.22-6,6.64a15.15,15.15,0,0,1-4,1.18,2.08,2.08,0,0,0,.93,1.1q2,1.69,4.14,3.32c1.4,1.09,2.81,2.16,4.25,3.19a2.14,2.14,0,0,0,1.29.63,33.44,33.44,0,0,0,4.12.3c4.29,0,8.57.12,12.86.18,3.09,0,6.18.07,9.26.05,4.84,0,9.65-.44,14.49-.4q13.47.12,26.94.17,74.8.32,149.62.2c48.79,0,97.58,0,146.37-.23,4.88,0,9.76-.11,14.64-.08,4.27,0,8.52.32,12.79.41,8.16.18,16.35-.21,24.51-.29,2.65,0,5.3-.14,7.94.07,1.86.15,3.72.31,5.58.43l5.33.36a2,2,0,0,0-.78-1.18q-1.8-1.89-3.69-3.71c-1.24-1.22-2.5-2.42-3.8-3.59A2,2,0,0,0,438.36,203.87Z" opacity="0.11"/><path d="M436.39,201c-72.57.22-145.16,0-217.73,0q-73,0-146.08,0c-23.9,0-47.82.26-71.72,0l7.75,6.26a8.91,8.91,0,0,0,1-2.71,13.75,13.75,0,0,0,.48-2.09q1.26-6.52,3.16-12.91a150.82,150.82,0,0,0,3.2-23.48c1.47-22.51,1.44-45.11,1.57-67.65.18-31.87.05-63.74.24-95.61l-5,7a18,18,0,0,0,5,2C24,13.66,29.59,15.65,35.47,16.8c7.66,1.49,15.53,1.71,23.31,2q13.48.55,27,.7c49.95.63,99.92.38,149.88.39q73,0,146.06.05c17.35,0,34.7-.08,52,0,6.53,0,13.07,0,19.6.08l-5.46-4a9.3,9.3,0,0,0-1.47,2.63c-1.31,3.06-2.65,6.2-3.7,9.35a86.05,86.05,0,0,0-3.77,18.32c-1.11,10.41-1.42,21-1.66,31.42-.29,12.47-.43,24.93-.52,37.4-.25,34.41-.08,68.83-.29,103.24a.87.87,0,0,0,.76-.39c.74-.7,1.45-1.43,2.13-2.18s2.31-2,2.33-3.08c.14-8,.47-15.94.26-23.9-.52-18.76-.11-37.56-.07-56.32.05-19.91.06-39.82.22-59.73.07-9.46.5-18.9.81-28.35a139.85,139.85,0,0,1,2.27-20.2l-1.94,4a12.73,12.73,0,0,1,5-6.52,14.72,14.72,0,0,1,5.32-1.8,15.44,15.44,0,0,0-2-1.8c-.66-.47-1.32-.93-2-1.36a4.94,4.94,0,0,0-1.48-.8c-5.58-.55-11.32-.23-16.92-.29-6.9-.07-13.76.13-20.65.2-6.4.06-12.8-.06-19.2-.08q-67.87-.22-135.73-.15-71.37,0-142.73,0c-18.58,0-37.18.12-55.76-.53q-5.91-.11-11.82-.26c-3.42-.14-6.83-.3-10.25-.48a127.51,127.51,0,0,1-14.87-2.75l4.35,1.49a9.13,9.13,0,0,1-4.95-4.86A20.76,20.76,0,0,1,18.28,2.5a1.1,1.1,0,0,0-.77.6c-.5.65-1,1.32-1.45,2-.59.84-1.17,1.7-1.73,2.56a8,8,0,0,0-1.06,1.87C13.15,16.67,12.93,23.82,13,31c0,3.7.26,7.4.3,11.1.05,4.1-.05,8.2-.07,12.3q-.06,15.87-.1,31.72c-.05,21.26-.06,42.51-.25,63.76-.14,16.36-.65,32.76-2.79,49l1.6-5.73a11.3,11.3,0,0,1-5,6.28A16.49,16.49,0,0,1,.86,201a1.29,1.29,0,0,0,.63.89c.69.62,1.39,1.22,2.11,1.8.9.74,1.8,1.47,2.71,2.18a10.5,10.5,0,0,0,2,1.37c5,.66,10.21.32,15.29.4,6.57.11,13.1.06,19.67-.14,8.55-.26,17.14,0,25.7,0q76,.28,151.93.17,75.64,0,151.29-.16c4.88,0,9.76-.07,14.64-.07,4.29,0,8.55.23,12.83.31,7.39.16,14.81-.07,22.2-.17,3.43-.05,6.87-.24,10.3-.06l5.65.3,5.25.29a1.23,1.23,0,0,0-.48-1c-.83-1-1.69-1.93-2.57-2.85s-1.77-1.86-2.69-2.75A1.25,1.25,0,0,0,436.39,201Z" opacity="0.11"/><path d="M436.48,198.6c-20.17.16-40.34,0-60.5,0q-73.65.06-147.29,0-74.13,0-148.26,0c-18.37,0-36.74.06-55.11,0-8,0-16,.09-24-.07L6,203.11c2.89-2.17,4.65-6,6.06-9.19a69.17,69.17,0,0,0,4.43-16.74c1.59-9.77,1.89-19.79,2.25-29.67.47-13.39.59-26.81.71-40.22.31-35.68.15-71.37.32-107.06L16,5.86a31.74,31.74,0,0,0,7.51,5.51,55.1,55.1,0,0,0,9.06,4.11,36.12,36.12,0,0,0,5.35.92q4.57.63,9.16,1.08c7.77.75,15.58,1,23.37,1.24,22.35.62,44.73.65,67.09.72q42.81.14,85.64.11,116.42,0,232.85,0l-2.1-1.65c-1.55,1.11-3.14,2.13-4.66,3.29a44.47,44.47,0,0,0-4,3.34l-3.1,2.95c-.62,1-1,3.67-1.21,4.82-.64,2.94-1.17,5.92-1.68,8.88C437.56,51,437.33,61.11,437,71.05c-.51,13.39-.64,26.79-.76,40.18-.33,35.7-.25,71.4-.31,107.1,0,.78,2.06-.59,2.06-1.11,0-31.89,0-63.77.17-95.65.11-21.52.13-43.08,1.1-64.58.21-4.64.42-9.33,1.05-13.93.21-1.61.44-3.22.71-4.83.37-2.24.71-4.49,1-6.73l3.28-5.67L448,23.41a16.13,16.13,0,0,1,4-2.57,8.93,8.93,0,0,1,4-1.27c.76-.18-1.46-1.75-1.94-1.75H275.53q-67.74,0-135.48-.08c-19.14,0-38.27-.09-57.41-.34-16.63-.21-33.25-.56-49.77-2.55l1.3.3a22.51,22.51,0,0,1-13-8.86,17.76,17.76,0,0,1-1.37-6c-.12-.93-1.41,1.21-1.35,1.14-.61.89-1.19,1.8-1.75,2.73A4.85,4.85,0,0,0,16,5.61c-.09,7.1-.29,14.21-.25,21.31,0,7.84.2,15.67.17,23.52q-.06,15.86-.09,31.7c-.06,20-.09,40-.32,60.06-.1,8.7-.39,17.37-.77,26.06a130,130,0,0,1-3.16,25.47l1.26-3.83A14.38,14.38,0,0,1,7,196.83a15,15,0,0,1-5.92,1.77c-.23,0,1.49,1.84,1.66,2,.56.54,1.14,1.06,1.73,1.57a4.93,4.93,0,0,0,1.32,1c.72.08,1.43.18,2.15.22h4.51q5.19,0,10.37.08c8.83.09,17.64-.14,26.47-.14,9.3,0,18.59.06,27.89.07q68,.15,136,.1,70.23,0,140.46-.08c10.14,0,20.28-.11,30.41-.07s20.05.19,30.08.13c8.73-.06,17.44-.08,26.17.23.33,0-1.7-2.86-1.63-2.76C438.33,200.41,437.31,198.6,436.48,198.6Z" opacity="0.11"/><path d="M437.68,204.36c-22.64-.27-45.29-.2-67.93-.17q-75,.08-149.9,0-73,0-146.07,0c-23.91,0-47.83.23-71.73,0l9.66,6.53a15.39,15.39,0,0,1-.05-1.92,45.71,45.71,0,0,1,.88-8.4q.66-6,1.36-12.09c.83-6.36,1.48-12.7,1.88-19.1,1.4-22.56,1.42-45.18,1.55-67.78.18-31.87,0-63.74.24-95.61L10.32,14c3-.21,5.68.36,9,.65l-5.54-.74c7,1.67,13.78,3.36,20.83,4.5a184.9,184.9,0,0,0,20.88,1.9c19.29.93,38.59,1,57.89,1.13,47.33.26,94.66.18,142,.19q66.86,0,133.71,0c21.44,0,42.88-.14,64.32,0l-9.75-9a43,43,0,0,1,.22,11.5l.32-6.43c-1.43,10-3.57,20-4.6,30.14-1,9.49-1.37,19.07-1.64,28.6-.6,21.17-.67,42.36-.76,63.54-.11,26.81,0,53.62-.16,80.43a2.2,2.2,0,0,0,1.12-1q1.75-2.11,3.41-4.3t3.29-4.4a2.18,2.18,0,0,0,.65-1.33c.18-7.08.49-14.18.4-21.27L445.52,177q0-6.15.08-12.3.07-12.17.09-24.33.07-28.38.07-56.74c0-17.22.26-34.41.68-51.62v.37c.21-6.21.37-3.93-.58-10l.06.36-.56-4.15-2.46,11.3a9.7,9.7,0,0,1,5-6.49,19.09,19.09,0,0,1,5.48-1.66,2.07,2.07,0,0,0-.82-1.16q-1.86-1.84-3.8-3.61t-3.91-3.49a2.06,2.06,0,0,0-1.22-.72,27.8,27.8,0,0,0-4.08-.3c-4.29,0-8.57-.11-12.85-.17l-9.25-.06-11.51.4c-6.38.09-12.78-.1-19.16-.13-45.22-.24-90.45-.22-135.67-.23q-71.4,0-142.8.08L80,12.35l-14.68,0q-6.44,0-12.86-.45c-7.46-.21-14.94,0-22.39-.17q-4.44-.09-8.87-.23-3.59.76-7.19,1.37l9.94,3a9,9,0,0,1-4.92-5A28.74,28.74,0,0,1,17.57,5.8a1.49,1.49,0,0,0-1,.67Q15.09,8,13.66,9.65t-2.8,3.29A1.53,1.53,0,0,0,10.32,14c-.2,8-.57,16-.29,23.92.31,9.19.21,18.35.17,27.54q-.07,16.29-.09,32.59c0,21.14.18,42.3-.1,63.44-.06,4.26-.35,8.51-.49,12.77-.13,4-.08,8-.14,12,0,2.56-.07,5.11-.13,7.67a10.85,10.85,0,0,0,0,2.67c.28,2.84,1.19,5.94,1.7,8.73l1.43-9a9.79,9.79,0,0,1-4.95,6.24,17.85,17.85,0,0,1-5.34,1.67,1.69,1.69,0,0,0,.84.93c.87.64,1.76,1.27,2.66,1.88,1.11.77,2.24,1.53,3.37,2.27a14.51,14.51,0,0,0,2.44,1.42c5.11.6,10.3.32,15.45.42,6.56.12,13.1,0,19.66-.19,8.55-.28,17.14,0,25.7,0,50.65.22,101.3.2,152,.2,50.42,0,100.85,0,151.27-.19,4.88,0,9.76-.1,14.63-.08,4.3,0,8.58.28,12.87.37,7.39.14,14.81-.13,22.2-.23,3.41,0,6.83-.22,10.23,0l5.67.37,5.39.33a1.61,1.61,0,0,0-.72-1q-1.65-1.53-3.39-3t-3.49-2.85A1.63,1.63,0,0,0,437.68,204.36Z" opacity="0.11"/></g></g></svg>